#N canvas 615 102 376 451 10;
#X obj 130 57 inlet;
#X obj 135 177 hilbert~;
#X obj 153 211 osc~;
#X obj 224 212 osc~;
#X obj 213 90 loadbang;
#X floatatom 130 94 10 0 0 0 - - -;
#X obj 147 267 *~;
#X obj 204 269 *~;
#X obj 147 318 +~;
#X obj 189 319 +~;
#X msg 212 163 0;
#X obj 214 137 t b b;
#X obj 213 114 bng 15 250 50 0 empty empty empty 17 7 0 10 -262144
-1 -1;
#X msg 246 163 0.25;
#X obj 61 388 outlet~;
#X obj 242 382 outlet~;
#X obj 20 59 inlet~;
#X text 23 16 like the max freqshift~ object;
#X text 177 53 amount to shift freq in Hz.;
#X text 67 58 signal;
#X text 58 414 positive sideband;
#X text 241 410 negative sideband;
#X connect 0 0 5 0;
#X connect 1 0 6 0;
#X connect 1 1 7 0;
#X connect 2 0 6 1;
#X connect 3 0 7 1;
#X connect 4 0 12 0;
#X connect 5 0 3 0;
#X connect 5 0 2 0;
#X connect 6 0 9 0;
#X connect 6 0 8 0;
#X connect 7 0 8 1;
#X connect 7 0 9 1;
#X connect 8 0 14 0;
#X connect 9 0 15 0;
#X connect 10 0 2 1;
#X connect 11 0 10 0;
#X connect 11 1 13 0;
#X connect 12 0 11 0;
#X connect 13 0 3 1;
#X connect 16 0 1 0;
