{
	"patcher" : 	{
		"fileversion" : 1,
		"appversion" : 		{
			"major" : 6,
			"minor" : 1,
			"revision" : 7,
			"architecture" : "x86"
		}
,
		"rect" : [ 59.0, 63.0, 851.0, 359.0 ],
		"bglocked" : 0,
		"openinpresentation" : 0,
		"default_fontsize" : 12.0,
		"default_fontface" : 0,
		"default_fontname" : "Arial",
		"gridonopen" : 0,
		"gridsize" : [ 15.0, 15.0 ],
		"gridsnaponopen" : 0,
		"statusbarvisible" : 2,
		"toolbarvisible" : 1,
		"boxanimatetime" : 200,
		"imprint" : 0,
		"enablehscroll" : 1,
		"enablevscroll" : 1,
		"devicewidth" : 0.0,
		"description" : "",
		"digest" : "",
		"tags" : "",
		"boxes" : [ 			{
				"box" : 				{
					"fontname" : "Arial",
					"fontsize" : 12.0,
					"frgb" : 0.0,
					"id" : "obj-21",
					"linecount" : 4,
					"maxclass" : "comment",
					"numinlets" : 1,
					"numoutlets" : 0,
					"patching_rect" : [ 664.0, 272.0, 150.0, 60.0 ],
					"text" : "Adjust corners in cornerpin window by dragging to fit projection surface"
				}

			}
, 			{
				"box" : 				{
					"bgcolor" : [ 0.995398, 1.0, 0.758061, 0.42 ],
					"fontname" : "Arial",
					"fontsize" : 12.0,
					"frgb" : 0.0,
					"id" : "obj-19",
					"maxclass" : "comment",
					"numinlets" : 1,
					"numoutlets" : 0,
					"patching_rect" : [ 32.5, 311.0, 178.0, 20.0 ],
					"text" : "projection mapping with vizzie"
				}

			}
, 			{
				"box" : 				{
					"fontname" : "Arial",
					"fontsize" : 12.0,
					"frgb" : 0.0,
					"id" : "obj-11",
					"maxclass" : "comment",
					"numinlets" : 1,
					"numoutlets" : 0,
					"patching_rect" : [ 35.0, 22.0, 105.0, 20.0 ],
					"text" : "click here to start"
				}

			}
, 			{
				"box" : 				{
					"bgmode" : 1,
					"id" : "obj-17",
					"maxclass" : "bpatcher",
					"name" : "vz.grabbr.maxpat",
					"numinlets" : 2,
					"numoutlets" : 1,
					"outlettype" : [ "jit_matrix" ],
					"patching_rect" : [ 634.0, 51.0, 180.0, 164.0 ],
					"prototypename" : "pixl"
				}

			}
, 			{
				"box" : 				{
					"attr" : "enable_mouse",
					"fontname" : "Verdana",
					"fontsize" : 12.0,
					"id" : "obj-16",
					"lock" : 1,
					"maxclass" : "attrui",
					"numinlets" : 1,
					"numoutlets" : 1,
					"outlettype" : [ "" ],
					"patching_rect" : [ 415.0, 201.0, 170.0, 21.0 ],
					"text_width" : 120.0
				}

			}
, 			{
				"box" : 				{
					"fontname" : "Arial",
					"fontsize" : 13.0,
					"id" : "obj-12",
					"maxclass" : "message",
					"numinlets" : 2,
					"numoutlets" : 1,
					"outlettype" : [ "" ],
					"patching_rect" : [ 185.0, 258.0, 50.0, 19.0 ],
					"text" : "reset"
				}

			}
, 			{
				"box" : 				{
					"fontname" : "Arial",
					"fontsize" : 13.0,
					"id" : "obj-8",
					"maxclass" : "newobj",
					"numinlets" : 1,
					"numoutlets" : 1,
					"outlettype" : [ "bang" ],
					"patching_rect" : [ 415.0, 231.0, 70.0, 21.0 ],
					"text" : "loadbang"
				}

			}
, 			{
				"box" : 				{
					"fontname" : "Arial",
					"fontsize" : 13.0,
					"id" : "obj-3",
					"maxclass" : "newobj",
					"numinlets" : 1,
					"numoutlets" : 2,
					"outlettype" : [ "jit_matrix", "" ],
					"patching_rect" : [ 415.0, 256.0, 131.0, 21.0 ],
					"text" : "jit.noise 4 char 80 60"
				}

			}
, 			{
				"box" : 				{
					"attr" : "upper_right",
					"fontname" : "Verdana",
					"fontsize" : 12.0,
					"id" : "obj-13",
					"lock" : 1,
					"maxclass" : "attrui",
					"numinlets" : 1,
					"numoutlets" : 1,
					"orientation" : 1,
					"outlettype" : [ "" ],
					"patching_rect" : [ 285.0, 51.0, 110.0, 42.0 ]
				}

			}
, 			{
				"box" : 				{
					"id" : "obj-9",
					"maxclass" : "toggle",
					"numinlets" : 1,
					"numoutlets" : 1,
					"outlettype" : [ "int" ],
					"parameter_enable" : 0,
					"patching_rect" : [ 32.5, 49.0, 30.0, 30.0 ]
				}

			}
, 			{
				"box" : 				{
					"fontname" : "Verdana",
					"fontsize" : 12.0,
					"id" : "obj-7",
					"maxclass" : "newobj",
					"numinlets" : 1,
					"numoutlets" : 2,
					"outlettype" : [ "bang", "erase" ],
					"patching_rect" : [ 32.5, 116.0, 64.0, 21.0 ],
					"text" : "t b erase"
				}

			}
, 			{
				"box" : 				{
					"fontname" : "Verdana",
					"fontsize" : 12.0,
					"id" : "obj-6",
					"maxclass" : "newobj",
					"numinlets" : 2,
					"numoutlets" : 1,
					"outlettype" : [ "bang" ],
					"patching_rect" : [ 32.5, 86.0, 66.0, 21.0 ],
					"text" : "qmetro 5"
				}

			}
, 			{
				"box" : 				{
					"fontname" : "Verdana",
					"fontsize" : 12.0,
					"frozen_object_attributes" : 					{
						"rect" : [ 730, 91, 1050, 331 ]
					}
,
					"id" : "obj-4",
					"maxclass" : "newobj",
					"numinlets" : 1,
					"numoutlets" : 2,
					"outlettype" : [ "bang", "" ],
					"patching_rect" : [ 32.5, 217.0, 161.0, 21.0 ],
					"text" : "jit.window cpctx @fsaa 1"
				}

			}
, 			{
				"box" : 				{
					"fontname" : "Verdana",
					"fontsize" : 12.0,
					"id" : "obj-5",
					"maxclass" : "newobj",
					"numinlets" : 1,
					"numoutlets" : 2,
					"outlettype" : [ "bang", "" ],
					"patching_rect" : [ 32.5, 156.0, 100.0, 21.0 ],
					"text" : "jit.gl.render"
				}

			}
, 			{
				"box" : 				{
					"fontname" : "Verdana",
					"fontsize" : 12.0,
					"id" : "obj-2",
					"maxclass" : "newobj",
					"numinlets" : 1,
					"numoutlets" : 2,
					"outlettype" : [ "", "" ],
					"patching_rect" : [ 285.0, 311.0, 100.0, 21.0 ],
					"text" : "jit.gl.cornerpin"
				}

			}
, 			{
				"box" : 				{
					"attr" : "upper_left",
					"fontname" : "Verdana",
					"fontsize" : 12.0,
					"id" : "obj-10",
					"lock" : 1,
					"maxclass" : "attrui",
					"numinlets" : 1,
					"numoutlets" : 1,
					"orientation" : 1,
					"outlettype" : [ "" ],
					"patching_rect" : [ 155.0, 51.0, 111.25, 42.0 ]
				}

			}
, 			{
				"box" : 				{
					"attr" : "lower_left",
					"fontname" : "Verdana",
					"fontsize" : 12.0,
					"id" : "obj-14",
					"lock" : 1,
					"maxclass" : "attrui",
					"numinlets" : 1,
					"numoutlets" : 1,
					"orientation" : 1,
					"outlettype" : [ "" ],
					"patching_rect" : [ 155.0, 110.0, 110.0, 42.0 ]
				}

			}
, 			{
				"box" : 				{
					"attr" : "lower_right",
					"fontname" : "Verdana",
					"fontsize" : 12.0,
					"id" : "obj-15",
					"lock" : 1,
					"maxclass" : "attrui",
					"numinlets" : 1,
					"numoutlets" : 1,
					"orientation" : 1,
					"outlettype" : [ "" ],
					"patching_rect" : [ 285.0, 110.0, 110.0, 42.0 ]
				}

			}
, 			{
				"box" : 				{
					"attr" : "interp",
					"fontname" : "Verdana",
					"fontsize" : 12.0,
					"id" : "obj-26",
					"lock" : 1,
					"maxclass" : "attrui",
					"numinlets" : 1,
					"numoutlets" : 1,
					"outlettype" : [ "" ],
					"patching_rect" : [ 415.0, 171.0, 170.0, 21.0 ],
					"text_width" : 120.0
				}

			}
, 			{
				"box" : 				{
					"attr" : "corner_radius",
					"fontname" : "Verdana",
					"fontsize" : 12.0,
					"id" : "obj-23",
					"lock" : 1,
					"maxclass" : "attrui",
					"numinlets" : 1,
					"numoutlets" : 1,
					"outlettype" : [ "" ],
					"patching_rect" : [ 415.0, 81.0, 170.0, 21.0 ],
					"text_width" : 120.0
				}

			}
, 			{
				"box" : 				{
					"attr" : "grow",
					"fontname" : "Verdana",
					"fontsize" : 12.0,
					"id" : "obj-27",
					"maxclass" : "attrui",
					"numinlets" : 1,
					"numoutlets" : 1,
					"outlettype" : [ "" ],
					"patching_rect" : [ 32.5, 186.0, 85.0, 21.0 ],
					"text_width" : 54.0
				}

			}
, 			{
				"box" : 				{
					"attr" : "cornermode",
					"fontname" : "Verdana",
					"fontsize" : 12.0,
					"id" : "obj-28",
					"lock" : 1,
					"maxclass" : "attrui",
					"numinlets" : 1,
					"numoutlets" : 1,
					"outlettype" : [ "" ],
					"patching_rect" : [ 415.0, 51.0, 197.0, 21.0 ],
					"text_width" : 120.0
				}

			}
, 			{
				"box" : 				{
					"attr" : "drawcorners",
					"fontname" : "Verdana",
					"fontsize" : 12.0,
					"id" : "obj-29",
					"lock" : 1,
					"maxclass" : "attrui",
					"numinlets" : 1,
					"numoutlets" : 1,
					"outlettype" : [ "" ],
					"patching_rect" : [ 415.0, 111.0, 170.0, 21.0 ],
					"text_width" : 120.0
				}

			}
, 			{
				"box" : 				{
					"attr" : "preserve_aspect",
					"fontname" : "Verdana",
					"fontsize" : 12.0,
					"id" : "obj-31",
					"lock" : 1,
					"maxclass" : "attrui",
					"numinlets" : 1,
					"numoutlets" : 1,
					"outlettype" : [ "" ],
					"patching_rect" : [ 415.0, 141.0, 170.0, 21.0 ],
					"text_width" : 120.0
				}

			}
 ],
		"lines" : [ 			{
				"patchline" : 				{
					"destination" : [ "obj-2", 0 ],
					"disabled" : 0,
					"hidden" : 0,
					"source" : [ "obj-10", 0 ]
				}

			}
, 			{
				"patchline" : 				{
					"destination" : [ "obj-2", 0 ],
					"disabled" : 0,
					"hidden" : 0,
					"source" : [ "obj-12", 0 ]
				}

			}
, 			{
				"patchline" : 				{
					"destination" : [ "obj-2", 0 ],
					"disabled" : 0,
					"hidden" : 0,
					"source" : [ "obj-13", 0 ]
				}

			}
, 			{
				"patchline" : 				{
					"destination" : [ "obj-2", 0 ],
					"disabled" : 0,
					"hidden" : 0,
					"source" : [ "obj-14", 0 ]
				}

			}
, 			{
				"patchline" : 				{
					"destination" : [ "obj-2", 0 ],
					"disabled" : 0,
					"hidden" : 0,
					"source" : [ "obj-15", 0 ]
				}

			}
, 			{
				"patchline" : 				{
					"destination" : [ "obj-2", 0 ],
					"disabled" : 0,
					"hidden" : 0,
					"source" : [ "obj-16", 0 ]
				}

			}
, 			{
				"patchline" : 				{
					"destination" : [ "obj-2", 0 ],
					"disabled" : 0,
					"hidden" : 0,
					"source" : [ "obj-17", 0 ]
				}

			}
, 			{
				"patchline" : 				{
					"destination" : [ "obj-2", 0 ],
					"disabled" : 0,
					"hidden" : 0,
					"source" : [ "obj-23", 0 ]
				}

			}
, 			{
				"patchline" : 				{
					"destination" : [ "obj-2", 0 ],
					"disabled" : 0,
					"hidden" : 0,
					"source" : [ "obj-26", 0 ]
				}

			}
, 			{
				"patchline" : 				{
					"destination" : [ "obj-4", 0 ],
					"disabled" : 0,
					"hidden" : 0,
					"source" : [ "obj-27", 0 ]
				}

			}
, 			{
				"patchline" : 				{
					"destination" : [ "obj-2", 0 ],
					"disabled" : 0,
					"hidden" : 0,
					"source" : [ "obj-28", 0 ]
				}

			}
, 			{
				"patchline" : 				{
					"destination" : [ "obj-2", 0 ],
					"disabled" : 0,
					"hidden" : 0,
					"source" : [ "obj-29", 0 ]
				}

			}
, 			{
				"patchline" : 				{
					"destination" : [ "obj-2", 0 ],
					"disabled" : 0,
					"hidden" : 0,
					"source" : [ "obj-31", 0 ]
				}

			}
, 			{
				"patchline" : 				{
					"destination" : [ "obj-7", 0 ],
					"disabled" : 0,
					"hidden" : 0,
					"source" : [ "obj-6", 0 ]
				}

			}
, 			{
				"patchline" : 				{
					"destination" : [ "obj-5", 0 ],
					"disabled" : 0,
					"hidden" : 0,
					"source" : [ "obj-7", 1 ]
				}

			}
, 			{
				"patchline" : 				{
					"destination" : [ "obj-5", 0 ],
					"disabled" : 0,
					"hidden" : 0,
					"source" : [ "obj-7", 0 ]
				}

			}
, 			{
				"patchline" : 				{
					"destination" : [ "obj-3", 0 ],
					"disabled" : 0,
					"hidden" : 0,
					"source" : [ "obj-8", 0 ]
				}

			}
, 			{
				"patchline" : 				{
					"destination" : [ "obj-6", 0 ],
					"disabled" : 0,
					"hidden" : 0,
					"source" : [ "obj-9", 0 ]
				}

			}
 ],
		"dependency_cache" : [ 			{
				"name" : "vz.grabbr.maxpat",
				"bootpath" : "/Applications/Max 6.1/packages/vizzie/patchers",
				"patcherrelativepath" : "../../../Applications/Max 6.1/packages/vizzie/patchers",
				"type" : "JSON",
				"implicit" : 1
			}
, 			{
				"name" : "xplatform-grab.maxpat",
				"bootpath" : "/Applications/Max 6.1/packages/vizzie/patchers",
				"patcherrelativepath" : "../../../Applications/Max 6.1/packages/vizzie/patchers",
				"type" : "JSON",
				"implicit" : 1
			}
, 			{
				"name" : "playr-transport.png",
				"bootpath" : "/Applications/Max 6.1/packages/vizzie/patchers",
				"patcherrelativepath" : "../../../Applications/Max 6.1/packages/vizzie/patchers",
				"type" : "PNG ",
				"implicit" : 1
			}
, 			{
				"name" : "pvr-data-button.png",
				"bootpath" : "/Applications/Max 6.1/packages/vizzie/patchers",
				"patcherrelativepath" : "../../../Applications/Max 6.1/packages/vizzie/patchers",
				"type" : "PNG ",
				"implicit" : 1
			}
, 			{
				"name" : "data-handler.maxpat",
				"bootpath" : "/Applications/Max 6.1/packages/vizzie/patchers",
				"patcherrelativepath" : "../../../Applications/Max 6.1/packages/vizzie/patchers",
				"type" : "JSON",
				"implicit" : 1
			}
 ]
	}

}
