{
	"patcher" : 	{
		"fileversion" : 1,
		"appversion" : 		{
			"major" : 6,
			"minor" : 1,
			"revision" : 9,
			"architecture" : "x86"
		}
,
		"rect" : [ 845.0, 44.0, 226.0, 540.0 ],
		"bgcolor" : [ 0.67451, 0.67451, 0.67451, 1.0 ],
		"bglocked" : 0,
		"openinpresentation" : 1,
		"default_fontsize" : 12.0,
		"default_fontface" : 0,
		"default_fontname" : "Arial",
		"gridonopen" : 0,
		"gridsize" : [ 10.0, 10.0 ],
		"gridsnaponopen" : 0,
		"statusbarvisible" : 2,
		"toolbarvisible" : 1,
		"boxanimatetime" : 200,
		"imprint" : 1,
		"enablehscroll" : 1,
		"enablevscroll" : 1,
		"devicewidth" : 0.0,
		"description" : "",
		"digest" : "",
		"tags" : "",
		"boxes" : [ 			{
				"box" : 				{
					"background" : 0,
					"bgcolor" : [ 1.0, 1.0, 1.0, 1.0 ],
					"color" : [ 0.8, 0.84, 0.71, 1.0 ],
					"fontface" : 0,
					"fontname" : "Arial",
					"fontsize" : 12.0,
					"hidden" : 0,
					"id" : "obj-10",
					"ignoreclick" : 0,
					"maxclass" : "newobj",
					"numinlets" : 1,
					"numoutlets" : 1,
					"outlettype" : [ "" ],
					"patching_rect" : [ 460.0, 40.0, 72.0, 20.0 ],
					"presentation" : 0,
					"presentation_rect" : [ 0.0, 0.0, 0.0, 0.0 ],
					"text" : "loadmess 1",
					"textcolor" : [ 0.0, 0.0, 0.0, 1.0 ],
					"textjustification" : 0
				}

			}
, 			{
				"box" : 				{
					"background" : 0,
					"bgcolor" : [ 1.0, 1.0, 1.0, 0.0 ],
					"bubble" : 0,
					"bubblepoint" : 0.5,
					"bubbleside" : 1,
					"bubbletextmargin" : 5,
					"fontface" : 0,
					"fontname" : "Arial",
					"fontsize" : 12.0,
					"frgb" : 0.0,
					"hidden" : 0,
					"id" : "obj-22",
					"ignoreclick" : 1,
					"maxclass" : "comment",
					"numinlets" : 1,
					"numoutlets" : 0,
					"patching_rect" : [ 610.0, 590.0, 150.0, 20.0 ],
					"presentation" : 1,
					"presentation_rect" : [ 60.0, 610.0, 150.0, 20.0 ],
					"text" : "press ESC for fullscreen ",
					"textcolor" : [ 0.0, 0.0, 0.0, 1.0 ],
					"textjustification" : 0,
					"underline" : 0
				}

			}
, 			{
				"box" : 				{
					"background" : 0,
					"bgcolor" : [ 1.0, 1.0, 1.0, 0.0 ],
					"bubble" : 0,
					"bubblepoint" : 0.5,
					"bubbleside" : 1,
					"bubbletextmargin" : 5,
					"fontface" : 0,
					"fontname" : "Arial",
					"fontsize" : 12.0,
					"frgb" : 0.0,
					"hidden" : 0,
					"id" : "obj-11",
					"ignoreclick" : 1,
					"maxclass" : "comment",
					"numinlets" : 1,
					"numoutlets" : 0,
					"patching_rect" : [ 500.0, 120.0, 32.0, 20.0 ],
					"presentation" : 0,
					"presentation_rect" : [ 0.0, 0.0, 0.0, 0.0 ],
					"text" : "bug",
					"textcolor" : [ 0.0, 0.0, 0.0, 1.0 ],
					"textjustification" : 0,
					"underline" : 0
				}

			}
, 			{
				"box" : 				{
					"background" : 0,
					"bgcolor" : [ 1.0, 1.0, 1.0, 1.0 ],
					"color" : [ 0.8, 0.84, 0.71, 1.0 ],
					"fontface" : 0,
					"fontname" : "Arial",
					"fontsize" : 12.0,
					"hidden" : 0,
					"id" : "obj-5",
					"ignoreclick" : 0,
					"maxclass" : "newobj",
					"numinlets" : 2,
					"numoutlets" : 1,
					"outlettype" : [ "bang" ],
					"patching_rect" : [ 500.0, 140.0, 43.0, 20.0 ],
					"presentation" : 0,
					"presentation_rect" : [ 0.0, 0.0, 0.0, 0.0 ],
					"text" : "del 30",
					"textcolor" : [ 0.0, 0.0, 0.0, 1.0 ],
					"textjustification" : 0
				}

			}
, 			{
				"box" : 				{
					"background" : 0,
					"bgcolor" : [ 1.0, 1.0, 1.0, 1.0 ],
					"color" : [ 0.8, 0.84, 0.71, 1.0 ],
					"fontface" : 0,
					"fontname" : "Arial",
					"fontsize" : 12.0,
					"hidden" : 0,
					"id" : "obj-15",
					"ignoreclick" : 0,
					"maxclass" : "newobj",
					"numinlets" : 1,
					"numoutlets" : 1,
					"outlettype" : [ "bang" ],
					"patching_rect" : [ 580.0, 140.0, 60.0, 20.0 ],
					"presentation" : 0,
					"presentation_rect" : [ 0.0, 0.0, 0.0, 0.0 ],
					"text" : "loadbang",
					"textcolor" : [ 0.0, 0.0, 0.0, 1.0 ],
					"textjustification" : 0
				}

			}
, 			{
				"box" : 				{
					"background" : 0,
					"bgcolor" : [ 1.0, 1.0, 1.0, 1.0 ],
					"color" : [ 0.8, 0.84, 0.71, 1.0 ],
					"fontface" : 0,
					"fontname" : "Arial",
					"fontsize" : 12.0,
					"hidden" : 0,
					"id" : "obj-14",
					"ignoreclick" : 0,
					"maxclass" : "newobj",
					"numinlets" : 1,
					"numoutlets" : 1,
					"outlettype" : [ "bang" ],
					"patching_rect" : [ 340.0, 90.0, 24.0, 20.0 ],
					"presentation" : 0,
					"presentation_rect" : [ 0.0, 0.0, 0.0, 0.0 ],
					"text" : "t b",
					"textcolor" : [ 0.0, 0.0, 0.0, 1.0 ],
					"textjustification" : 0
				}

			}
, 			{
				"box" : 				{
					"background" : 0,
					"compatibility" : 0,
					"hidden" : 0,
					"id" : "obj-12",
					"ignoreclick" : 0,
					"maxclass" : "swatch",
					"numinlets" : 3,
					"numoutlets" : 2,
					"outlettype" : [ "", "float" ],
					"parameter_enable" : 0,
					"patching_rect" : [ 580.0, 280.0, 128.0, 32.0 ],
					"presentation" : 1,
					"presentation_rect" : [ 110.0, 160.0, 128.0, 32.0 ]
				}

			}
, 			{
				"box" : 				{
					"background" : 0,
					"bgcolor" : [ 1.0, 1.0, 1.0, 0.0 ],
					"bubble" : 0,
					"bubblepoint" : 0.5,
					"bubbleside" : 1,
					"bubbletextmargin" : 5,
					"fontface" : 0,
					"fontname" : "Arial",
					"fontsize" : 12.0,
					"frgb" : 0.0,
					"hidden" : 0,
					"id" : "obj-1",
					"ignoreclick" : 1,
					"maxclass" : "comment",
					"numinlets" : 1,
					"numoutlets" : 0,
					"patching_rect" : [ 440.0, 100.0, 150.0, 20.0 ],
					"presentation" : 1,
					"presentation_rect" : [ 10.0, 320.0, 89.0, 20.0 ],
					"text" : "render on/off",
					"textcolor" : [ 0.0, 0.0, 0.0, 1.0 ],
					"textjustification" : 0,
					"underline" : 0
				}

			}
, 			{
				"box" : 				{
					"background" : 0,
					"bgcolor" : [ 1.0, 1.0, 1.0, 0.0 ],
					"bubble" : 0,
					"bubblepoint" : 0.5,
					"bubbleside" : 1,
					"bubbletextmargin" : 5,
					"fontface" : 0,
					"fontname" : "Arial",
					"fontsize" : 12.0,
					"frgb" : 0.0,
					"hidden" : 0,
					"id" : "obj-84",
					"ignoreclick" : 1,
					"maxclass" : "comment",
					"numinlets" : 1,
					"numoutlets" : 0,
					"patching_rect" : [ 160.0, 560.0, 150.0, 20.0 ],
					"presentation" : 1,
					"presentation_rect" : [ 10.0, 280.0, 89.0, 20.0 ],
					"text" : "draw mode",
					"textcolor" : [ 0.0, 0.0, 0.0, 1.0 ],
					"textjustification" : 0,
					"underline" : 0
				}

			}
, 			{
				"box" : 				{
					"background" : 0,
					"bgcolor" : [ 1.0, 1.0, 1.0, 0.0 ],
					"bubble" : 0,
					"bubblepoint" : 0.5,
					"bubbleside" : 1,
					"bubbletextmargin" : 5,
					"fontface" : 0,
					"fontname" : "Arial",
					"fontsize" : 12.0,
					"frgb" : 0.0,
					"hidden" : 0,
					"id" : "obj-83",
					"ignoreclick" : 1,
					"maxclass" : "comment",
					"numinlets" : 1,
					"numoutlets" : 0,
					"patching_rect" : [ 10.0, 420.0, 77.0, 20.0 ],
					"presentation" : 1,
					"presentation_rect" : [ 10.0, 250.0, 89.0, 20.0 ],
					"text" : "line width",
					"textcolor" : [ 0.0, 0.0, 0.0, 1.0 ],
					"textjustification" : 0,
					"underline" : 0
				}

			}
, 			{
				"box" : 				{
					"background" : 0,
					"bgcolor" : [ 1.0, 1.0, 1.0, 0.0 ],
					"bubble" : 0,
					"bubblepoint" : 0.5,
					"bubbleside" : 1,
					"bubbletextmargin" : 5,
					"fontface" : 0,
					"fontname" : "Arial",
					"fontsize" : 12.0,
					"frgb" : 0.0,
					"hidden" : 0,
					"id" : "obj-82",
					"ignoreclick" : 1,
					"maxclass" : "comment",
					"numinlets" : 1,
					"numoutlets" : 0,
					"patching_rect" : [ 303.0, 152.0, 150.0, 20.0 ],
					"presentation" : 1,
					"presentation_rect" : [ 10.0, 80.0, 89.0, 20.0 ],
					"text" : "reset phase",
					"textcolor" : [ 0.0, 0.0, 0.0, 1.0 ],
					"textjustification" : 0,
					"underline" : 0
				}

			}
, 			{
				"box" : 				{
					"background" : 0,
					"bgcolor" : [ 1.0, 1.0, 1.0, 0.0 ],
					"bubble" : 0,
					"bubblepoint" : 0.5,
					"bubbleside" : 1,
					"bubbletextmargin" : 5,
					"fontface" : 0,
					"fontname" : "Arial",
					"fontsize" : 12.0,
					"frgb" : 0.0,
					"hidden" : 0,
					"id" : "obj-80",
					"ignoreclick" : 1,
					"maxclass" : "comment",
					"numinlets" : 1,
					"numoutlets" : 0,
					"patching_rect" : [ 192.0, 54.0, 150.0, 20.0 ],
					"presentation" : 1,
					"presentation_rect" : [ 10.0, 50.0, 89.0, 20.0 ],
					"text" : "left freq scalar",
					"textcolor" : [ 0.0, 0.0, 0.0, 1.0 ],
					"textjustification" : 0,
					"underline" : 0
				}

			}
, 			{
				"box" : 				{
					"background" : 0,
					"bgcolor" : [ 1.0, 1.0, 1.0, 0.0 ],
					"bubble" : 0,
					"bubblepoint" : 0.5,
					"bubbleside" : 1,
					"bubbletextmargin" : 5,
					"fontface" : 0,
					"fontname" : "Arial",
					"fontsize" : 12.0,
					"frgb" : 0.0,
					"hidden" : 0,
					"id" : "obj-79",
					"ignoreclick" : 1,
					"maxclass" : "comment",
					"numinlets" : 1,
					"numoutlets" : 0,
					"patching_rect" : [ 110.0, 60.0, 150.0, 20.0 ],
					"presentation" : 1,
					"presentation_rect" : [ 10.0, 20.0, 62.0, 20.0 ],
					"text" : "base freq",
					"textcolor" : [ 0.0, 0.0, 0.0, 1.0 ],
					"textjustification" : 0,
					"underline" : 0
				}

			}
, 			{
				"box" : 				{
					"background" : 0,
					"bgcolor" : [ 1.0, 1.0, 1.0, 0.0 ],
					"bubble" : 0,
					"bubblepoint" : 0.5,
					"bubbleside" : 1,
					"bubbletextmargin" : 5,
					"fontface" : 0,
					"fontname" : "Arial",
					"fontsize" : 12.0,
					"frgb" : 0.0,
					"hidden" : 0,
					"id" : "obj-77",
					"ignoreclick" : 1,
					"maxclass" : "comment",
					"numinlets" : 1,
					"numoutlets" : 0,
					"patching_rect" : [ 729.0, 197.0, 150.0, 20.0 ],
					"presentation" : 1,
					"presentation_rect" : [ 10.0, 210.0, 88.0, 20.0 ],
					"text" : "erase opacity",
					"textcolor" : [ 0.0, 0.0, 0.0, 1.0 ],
					"textjustification" : 0,
					"underline" : 0
				}

			}
, 			{
				"box" : 				{
					"background" : 0,
					"bgcolor" : [ 1.0, 1.0, 1.0, 0.0 ],
					"bubble" : 0,
					"bubblepoint" : 0.5,
					"bubbleside" : 1,
					"bubbletextmargin" : 5,
					"fontface" : 0,
					"fontname" : "Arial",
					"fontsize" : 12.0,
					"frgb" : 0.0,
					"hidden" : 0,
					"id" : "obj-76",
					"ignoreclick" : 1,
					"maxclass" : "comment",
					"numinlets" : 1,
					"numoutlets" : 0,
					"patching_rect" : [ 139.0, 387.0, 150.0, 20.0 ],
					"presentation" : 1,
					"presentation_rect" : [ 10.0, 110.0, 61.0, 20.0 ],
					"text" : "fgcolor",
					"textcolor" : [ 0.0, 0.0, 0.0, 1.0 ],
					"textjustification" : 0,
					"underline" : 0
				}

			}
, 			{
				"box" : 				{
					"background" : 0,
					"bgcolor" : [ 1.0, 1.0, 1.0, 0.0 ],
					"bubble" : 0,
					"bubblepoint" : 0.5,
					"bubbleside" : 1,
					"bubbletextmargin" : 5,
					"fontface" : 0,
					"fontname" : "Arial",
					"fontsize" : 12.0,
					"frgb" : 0.0,
					"hidden" : 0,
					"id" : "obj-75",
					"ignoreclick" : 1,
					"maxclass" : "comment",
					"numinlets" : 1,
					"numoutlets" : 0,
					"patching_rect" : [ 580.0, 240.0, 150.0, 20.0 ],
					"presentation" : 1,
					"presentation_rect" : [ 10.0, 160.0, 52.0, 20.0 ],
					"text" : "bgcolor",
					"textcolor" : [ 0.0, 0.0, 0.0, 1.0 ],
					"textjustification" : 0,
					"underline" : 0
				}

			}
, 			{
				"box" : 				{
					"active1" : [ 0.79, 0.83, 1.0, 1.0 ],
					"active2" : [ 0.55, 0.568, 0.82, 1.0 ],
					"background" : 0,
					"bgcolor" : [ 0.94, 0.94, 0.94, 1.0 ],
					"bordercolor" : [ 0.5, 0.5, 0.5, 1.0 ],
					"bubblesize" : 9,
					"circlecolor" : [ 0.2, 0.2, 0.2, 0.8 ],
					"clicked1" : [ 0.68, 0.937, 0.658, 1.0 ],
					"clicked2" : [ 0.576, 0.733, 0.514, 1.0 ],
					"embed" : 1,
					"emptycolor" : [ 0.83, 0.83, 0.83, 1.0 ],
					"fontface" : 1,
					"fontname" : "Arial",
					"fontsize" : 11.0,
					"hidden" : 0,
					"id" : "obj-73",
					"ignoreclick" : 0,
					"margin" : 3,
					"maxclass" : "preset",
					"numinlets" : 1,
					"numoutlets" : 4,
					"outlettype" : [ "preset", "int", "preset", "int" ],
					"patching_rect" : [ 340.0, 30.0, 100.0, 40.0 ],
					"presentation" : 1,
					"presentation_rect" : [ 110.0, 370.0, 100.0, 190.0 ],
					"preset_data" : [ 						{
							"number" : 1,
							"data" : [ 5, "obj-26", "flonum", "float", 50.0, 5, "obj-38", "flonum", "float", 1.0, 5, "obj-41", "umenu", "int", 2, 9, "obj-54", "swatch", "list", 0.03125, 1.0, 0.0, 0.0, 1.0, 5, "obj-61", "flonum", "float", 1.0, 5, "obj-68", "flonum", "float", 0.19685, 5, "obj-72", "live.slider", "float", 0.19685, 9, "obj-12", "swatch", "list", 0.0, 0.0, 0.0, 0.0, 1.0 ]
						}
, 						{
							"number" : 2,
							"data" : [ 5, "obj-26", "flonum", "float", 50.0, 5, "obj-38", "flonum", "float", 3.0, 5, "obj-41", "umenu", "int", 2, 9, "obj-54", "swatch", "list", 0.03125, 1.0, 0.0, 0.0, 1.0, 5, "obj-61", "flonum", "float", 2.02, 5, "obj-68", "flonum", "float", 0.19685, 5, "obj-72", "live.slider", "float", 0.19685, 9, "obj-12", "swatch", "list", 0.0, 0.0, 0.0, 0.0, 1.0 ]
						}
, 						{
							"number" : 3,
							"data" : [ 5, "obj-26", "flonum", "float", 50.0, 5, "obj-38", "flonum", "float", 11.0, 5, "obj-41", "umenu", "int", 6, 9, "obj-54", "swatch", "list", 0.3125, 1.0, 0.516602, 0.0, 1.0, 5, "obj-61", "flonum", "float", 1.09, 5, "obj-68", "flonum", "float", 0.269135, 5, "obj-72", "live.slider", "float", 0.269135, 9, "obj-12", "swatch", "list", 0.09375, 0.75, 0.0, 0.0, 1.0 ]
						}
, 						{
							"number" : 4,
							"data" : [ 5, "obj-26", "flonum", "float", 67.0, 5, "obj-38", "flonum", "float", 1.0, 5, "obj-41", "umenu", "int", 2, 9, "obj-54", "swatch", "list", 1.0, 1.0, 1.0, 0.0, 0.0, 5, "obj-61", "flonum", "float", 2.02, 5, "obj-68", "flonum", "float", 0.079024, 5, "obj-72", "live.slider", "float", 0.079024, 9, "obj-12", "swatch", "list", 0.752941, 0.372042, 0.0, 0.0, 1.0 ]
						}
, 						{
							"number" : 5,
							"data" : [ 5, "obj-26", "flonum", "float", 100.0, 5, "obj-38", "flonum", "float", 14.0, 5, "obj-41", "umenu", "int", 2, 9, "obj-54", "swatch", "list", 0.0, 0.0, 0.0, 0.0, 0.0, 5, "obj-61", "flonum", "float", 1.522, 5, "obj-68", "flonum", "float", 0.21047, 5, "obj-72", "live.slider", "float", 0.21047, 9, "obj-12", "swatch", "list", 0.1875, 1.0, 0.504883, 0.0, 1.0 ]
						}
, 						{
							"number" : 6,
							"data" : [ 5, "obj-26", "flonum", "float", 100.0, 5, "obj-38", "flonum", "float", 10.0, 5, "obj-41", "umenu", "int", 1, 9, "obj-54", "swatch", "list", 1.0, 1.0, 1.0, 0.0, 0.0, 5, "obj-61", "flonum", "float", 1.97, 5, "obj-68", "flonum", "float", 0.047244, 5, "obj-72", "live.slider", "float", 0.047244, 9, "obj-12", "swatch", "list", 1.0, 0.125, 0.986328, 0.0, 1.0 ]
						}
, 						{
							"number" : 7,
							"data" : [ 5, "obj-26", "flonum", "float", 47.0, 5, "obj-38", "flonum", "float", 5.0, 5, "obj-41", "umenu", "int", 2, 9, "obj-54", "swatch", "list", 0.0, 0.0, 0.0, 0.0, 1.0, 5, "obj-61", "flonum", "float", 6.03, 5, "obj-68", "flonum", "float", 0.102362, 5, "obj-72", "live.slider", "float", 0.102362, 9, "obj-12", "swatch", "list", 1.0, 1.0, 1.0, 0.0, 1.0 ]
						}
, 						{
							"number" : 17,
							"data" : [ 5, "obj-26", "flonum", "float", 265.0, 5, "obj-38", "flonum", "float", 1.0, 5, "obj-41", "umenu", "int", 0, 11, "obj-54", "swatch", "list", 0.0, 1.0, 0.484375, 1.0, 0.414062, 1.0, 0.5, 5, "obj-61", "flonum", "float", 1.001, 5, "obj-68", "flonum", "float", 0.047244, 5, "obj-72", "live.slider", "float", 0.047244, 11, "obj-12", "swatch", "list", 0.0, 0.0, 0.0, 1.0, 0.664062, 1.0, 0.0 ]
						}
 ],
					"showtrack" : 1,
					"spacing" : 3,
					"stored1" : [ 0.8, 0.8, 0.8, 1.0 ],
					"stored2" : [ 0.41, 0.41, 0.41, 1.0 ],
					"textcolor" : [ 0.5, 0.5, 0.5, 1.0 ]
				}

			}
, 			{
				"box" : 				{
					"background" : 0,
					"focusbordercolor" : [ 0.0, 0.019608, 0.078431, 1.0 ],
					"fontface" : 1,
					"fontname" : "Arial",
					"fontsize" : 10.0,
					"hidden" : 0,
					"id" : "obj-72",
					"ignoreclick" : 0,
					"maxclass" : "live.slider",
					"modulationcolor" : [ 0.0, 0.0, 0.0, 1.0 ],
					"numinlets" : 1,
					"numoutlets" : 2,
					"orientation" : 1,
					"outlettype" : [ "", "float" ],
					"parameter_enable" : 1,
					"patching_rect" : [ 760.0, 220.0, 50.0, 31.0 ],
					"presentation" : 1,
					"presentation_rect" : [ 110.0, 210.0, 123.0, 31.0 ],
					"prototypename" : "myliveslider",
					"relative" : 0,
					"saved_attribute_attributes" : 					{
						"valueof" : 						{
							"parameter_longname" : "val",
							"parameter_shortname" : "val",
							"parameter_type" : 0,
							"parameter_mmax" : 1.0,
							"parameter_initial_enable" : 1,
							"parameter_initial" : [ 0.0 ],
							"parameter_unitstyle" : 1
						}

					}
,
					"showname" : 0,
					"shownumber" : 1,
					"slidercolor" : [ 0.0, 0.019608, 0.078431, 1.0 ],
					"textcolor" : [ 0.0, 0.019608, 0.078431, 1.0 ],
					"tribordercolor" : [ 0.0, 0.0, 0.0, 1.0 ],
					"tricolor" : [ 0.0, 0.0, 0.0, 1.0 ],
					"trioncolor" : [ 0.0, 0.019608, 0.078431, 1.0 ],
					"varname" : "live.slider"
				}

			}
, 			{
				"box" : 				{
					"background" : 0,
					"bgcolor" : [ 0.91328, 0.91328, 0.91328, 0.75 ],
					"blinkcolor" : [ 1.0, 0.890196, 0.090196, 1.0 ],
					"fgcolor" : [ 1.0, 1.0, 1.0, 1.0 ],
					"hidden" : 0,
					"id" : "obj-71",
					"ignoreclick" : 0,
					"maxclass" : "button",
					"numinlets" : 1,
					"numoutlets" : 1,
					"outlettype" : [ "bang" ],
					"outlinecolor" : [ 0.71328, 0.71328, 0.71328, 1.0 ],
					"patching_rect" : [ 590.0, 210.0, 20.0, 20.0 ],
					"presentation" : 0,
					"presentation_rect" : [ 0.0, 0.0, 0.0, 0.0 ]
				}

			}
, 			{
				"box" : 				{
					"background" : 0,
					"bgcolor" : [ 1.0, 1.0, 1.0, 1.0 ],
					"bordercolor" : [ 0.5, 0.5, 0.5, 1.0 ],
					"cantchange" : 0,
					"fontface" : 0,
					"fontname" : "Arial",
					"fontsize" : 12.0,
					"hbgcolor" : [ 0.0, 0.0, 0.0, 1.0 ],
					"hidden" : 0,
					"htextcolor" : [ 1.0, 1.0, 1.0, 1.0 ],
					"htricolor" : [ 0.87, 0.82, 0.24, 1.0 ],
					"id" : "obj-68",
					"ignoreclick" : 0,
					"maxclass" : "flonum",
					"maximum" : "<none>",
					"minimum" : "<none>",
					"mouseup" : 0,
					"numdecimalplaces" : 0,
					"numinlets" : 1,
					"numoutlets" : 2,
					"outlettype" : [ "float", "bang" ],
					"outputonclick" : 0,
					"parameter_enable" : 0,
					"patching_rect" : [ 760.0, 320.0, 50.0, 20.0 ],
					"presentation" : 0,
					"presentation_rect" : [ 0.0, 0.0, 0.0, 0.0 ],
					"textcolor" : [ 0.0, 0.0, 0.0, 1.0 ],
					"triangle" : 1,
					"tricolor" : [ 0.75, 0.75, 0.75, 1.0 ],
					"triscale" : 1.0
				}

			}
, 			{
				"box" : 				{
					"background" : 0,
					"bgcolor" : [ 1.0, 1.0, 1.0, 1.0 ],
					"color" : [ 0.8, 0.84, 0.71, 1.0 ],
					"fontface" : 0,
					"fontname" : "Arial",
					"fontsize" : 12.0,
					"hidden" : 0,
					"id" : "obj-66",
					"ignoreclick" : 0,
					"maxclass" : "newobj",
					"numinlets" : 1,
					"numoutlets" : 1,
					"outlettype" : [ "" ],
					"patching_rect" : [ 530.0, 400.0, 71.0, 20.0 ],
					"presentation" : 0,
					"presentation_rect" : [ 0.0, 0.0, 0.0, 0.0 ],
					"text" : "append 0.2",
					"textcolor" : [ 0.0, 0.0, 0.0, 1.0 ],
					"textjustification" : 0
				}

			}
, 			{
				"box" : 				{
					"background" : 0,
					"bgcolor" : [ 1.0, 1.0, 1.0, 1.0 ],
					"color" : [ 0.8, 0.84, 0.71, 1.0 ],
					"fontface" : 0,
					"fontname" : "Arial",
					"fontsize" : 12.0,
					"hidden" : 0,
					"id" : "obj-65",
					"ignoreclick" : 0,
					"maxclass" : "newobj",
					"numinlets" : 2,
					"numoutlets" : 1,
					"outlettype" : [ "signal" ],
					"patching_rect" : [ 170.0, 210.0, 48.0, 20.0 ],
					"presentation" : 0,
					"presentation_rect" : [ 0.0, 0.0, 0.0, 0.0 ],
					"text" : "-~ 0.25",
					"textcolor" : [ 0.0, 0.0, 0.0, 1.0 ],
					"textjustification" : 0
				}

			}
, 			{
				"box" : 				{
					"background" : 0,
					"bgcolor" : [ 1.0, 1.0, 1.0, 1.0 ],
					"color" : [ 0.8, 0.84, 0.71, 1.0 ],
					"fontface" : 0,
					"fontname" : "Arial",
					"fontsize" : 12.0,
					"hidden" : 0,
					"id" : "obj-64",
					"ignoreclick" : 0,
					"maxclass" : "newobj",
					"numinlets" : 1,
					"numoutlets" : 1,
					"outlettype" : [ "signal" ],
					"patching_rect" : [ 110.0, 110.0, 33.0, 20.0 ],
					"presentation" : 0,
					"presentation_rect" : [ 0.0, 0.0, 0.0, 0.0 ],
					"text" : "sig~",
					"textcolor" : [ 0.0, 0.0, 0.0, 1.0 ],
					"textjustification" : 0
				}

			}
, 			{
				"box" : 				{
					"background" : 0,
					"bgcolor" : [ 1.0, 1.0, 1.0, 1.0 ],
					"color" : [ 0.8, 0.84, 0.71, 1.0 ],
					"fontface" : 0,
					"fontname" : "Arial",
					"fontsize" : 12.0,
					"hidden" : 0,
					"id" : "obj-63",
					"ignoreclick" : 0,
					"maxclass" : "newobj",
					"numinlets" : 2,
					"numoutlets" : 1,
					"outlettype" : [ "signal" ],
					"patching_rect" : [ 170.0, 180.0, 54.0, 20.0 ],
					"presentation" : 0,
					"presentation_rect" : [ 0.0, 0.0, 0.0, 0.0 ],
					"text" : "phasor~",
					"textcolor" : [ 0.0, 0.0, 0.0, 1.0 ],
					"textjustification" : 0
				}

			}
, 			{
				"box" : 				{
					"background" : 0,
					"bgcolor" : [ 1.0, 1.0, 1.0, 1.0 ],
					"bordercolor" : [ 0.5, 0.5, 0.5, 1.0 ],
					"cantchange" : 0,
					"fontface" : 0,
					"fontname" : "Arial",
					"fontsize" : 12.0,
					"hbgcolor" : [ 0.0, 0.0, 0.0, 1.0 ],
					"hidden" : 0,
					"htextcolor" : [ 1.0, 1.0, 1.0, 1.0 ],
					"htricolor" : [ 0.87, 0.82, 0.24, 1.0 ],
					"id" : "obj-61",
					"ignoreclick" : 0,
					"maxclass" : "flonum",
					"maximum" : "<none>",
					"minimum" : "<none>",
					"mouseup" : 0,
					"numdecimalplaces" : 0,
					"numinlets" : 1,
					"numoutlets" : 2,
					"outlettype" : [ "float", "bang" ],
					"outputonclick" : 0,
					"parameter_enable" : 0,
					"patching_rect" : [ 190.0, 110.0, 50.0, 20.0 ],
					"presentation" : 1,
					"presentation_rect" : [ 170.0, 50.0, 50.0, 20.0 ],
					"textcolor" : [ 0.0, 0.0, 0.0, 1.0 ],
					"triangle" : 1,
					"tricolor" : [ 0.75, 0.75, 0.75, 1.0 ],
					"triscale" : 1.0
				}

			}
, 			{
				"box" : 				{
					"background" : 0,
					"bgcolor" : [ 1.0, 1.0, 1.0, 1.0 ],
					"color" : [ 0.8, 0.84, 0.71, 1.0 ],
					"fontface" : 0,
					"fontname" : "Arial",
					"fontsize" : 12.0,
					"hidden" : 0,
					"id" : "obj-58",
					"ignoreclick" : 0,
					"maxclass" : "newobj",
					"numinlets" : 1,
					"numoutlets" : 1,
					"outlettype" : [ "bang" ],
					"patching_rect" : [ 110.0, 20.0, 60.0, 20.0 ],
					"presentation" : 0,
					"presentation_rect" : [ 0.0, 0.0, 0.0, 0.0 ],
					"text" : "loadbang",
					"textcolor" : [ 0.0, 0.0, 0.0, 1.0 ],
					"textjustification" : 0
				}

			}
, 			{
				"box" : 				{
					"background" : 0,
					"compatibility" : 0,
					"hidden" : 0,
					"id" : "obj-54",
					"ignoreclick" : 0,
					"maxclass" : "swatch",
					"numinlets" : 3,
					"numoutlets" : 2,
					"outlettype" : [ "", "float" ],
					"parameter_enable" : 0,
					"patching_rect" : [ 140.0, 410.0, 128.0, 32.0 ],
					"presentation" : 1,
					"presentation_rect" : [ 110.0, 110.0, 128.0, 32.0 ]
				}

			}
, 			{
				"box" : 				{
					"background" : 0,
					"bgcolor" : [ 0.867, 0.867, 0.867, 1.0 ],
					"bgcolor2" : [ 0.867, 0.867, 0.867, 1.0 ],
					"fontface" : 0,
					"fontname" : "Arial",
					"fontsize" : 12.0,
					"gradient" : 0,
					"hidden" : 0,
					"id" : "obj-57",
					"ignoreclick" : 0,
					"maxclass" : "message",
					"numinlets" : 2,
					"numoutlets" : 1,
					"outlettype" : [ "" ],
					"patching_rect" : [ 140.0, 460.0, 97.0, 18.0 ],
					"presentation" : 0,
					"presentation_rect" : [ 0.0, 0.0, 0.0, 0.0 ],
					"text" : "color $1 $2 $3 1",
					"textcolor" : [ 0.0, 0.0, 0.0, 1.0 ],
					"textjustification" : 0
				}

			}
, 			{
				"box" : 				{
					"background" : 0,
					"bgcolor" : [ 1.0, 1.0, 1.0, 1.0 ],
					"color" : [ 0.8, 0.84, 0.71, 1.0 ],
					"fontface" : 0,
					"fontname" : "Arial",
					"fontsize" : 11.595187,
					"hidden" : 0,
					"id" : "obj-20",
					"ignoreclick" : 0,
					"maxclass" : "newobj",
					"numinlets" : 1,
					"numoutlets" : 1,
					"outlettype" : [ "" ],
					"patching_rect" : [ 160.0, 621.0, 115.0, 19.0 ],
					"presentation" : 0,
					"presentation_rect" : [ 0.0, 0.0, 0.0, 0.0 ],
					"text" : "prepend draw_mode",
					"textcolor" : [ 0.0, 0.0, 0.0, 1.0 ],
					"textjustification" : 0
				}

			}
, 			{
				"box" : 				{
					"align" : 0,
					"arrow" : 1,
					"arrowbgcolor" : [ 0.86, 0.86, 0.86, 1.0 ],
					"arrowcolor" : [ 0.22, 0.22, 0.22, 1.0 ],
					"arrowframe" : 1,
					"arrowlink" : 1,
					"autopopulate" : 0,
					"background" : 0,
					"bgcolor" : [ 1.0, 1.0, 1.0, 1.0 ],
					"bgcolor2" : [ 1.0, 1.0, 1.0, 1.0 ],
					"depth" : 0,
					"discolor" : [ 0.43, 0.43, 0.43, 1.0 ],
					"fontface" : 0,
					"fontname" : "Arial",
					"fontsize" : 11.595187,
					"framecolor" : [ 0.5, 0.5, 0.5, 1.0 ],
					"hidden" : 0,
					"hltcolor" : [ 0.92, 0.92, 0.92, 1.0 ],
					"id" : "obj-41",
					"ignoreclick" : 0,
					"items" : [ "points", ",", "lines", ",", "line_strip", ",", "line_loop", ",", "triangles", ",", "tri_strip", ",", "tri_fan", ",", "quads", ",", "quad_strip", ",", "polygon", ",", "tri_grid" ],
					"labelclick" : 0,
					"maxclass" : "umenu",
					"menumode" : 0,
					"numinlets" : 1,
					"numoutlets" : 3,
					"outlettype" : [ "int", "", "" ],
					"parameter_enable" : 0,
					"patching_rect" : [ 160.0, 590.0, 90.0, 19.0 ],
					"pattrmode" : 1,
					"prefix" : "",
					"prefix_mode" : 0,
					"presentation" : 1,
					"presentation_rect" : [ 110.0, 280.0, 90.0, 19.0 ],
					"rounded" : 8,
					"showdotfiles" : 0,
					"textcolor" : [ 0.15, 0.15, 0.15, 1.0 ],
					"textcolor2" : [ 0.15, 0.15, 0.15, 1.0 ],
					"togcolor" : [ 0.55, 0.55, 0.55, 1.0 ],
					"truncate" : 1,
					"underline" : 0
				}

			}
, 			{
				"box" : 				{
					"background" : 0,
					"bgcolor" : [ 1.0, 1.0, 1.0, 1.0 ],
					"color" : [ 0.8, 0.84, 0.71, 1.0 ],
					"fontface" : 0,
					"fontname" : "Arial",
					"fontsize" : 11.595187,
					"hidden" : 0,
					"id" : "obj-81",
					"ignoreclick" : 0,
					"maxclass" : "newobj",
					"numinlets" : 0,
					"numoutlets" : 1,
					"outlettype" : [ "" ],
					"patcher" : 					{
						"fileversion" : 1,
						"appversion" : 						{
							"major" : 6,
							"minor" : 1,
							"revision" : 9,
							"architecture" : "x86"
						}
,
						"rect" : [ 86.0, 108.0, 235.0, 205.0 ],
						"bglocked" : 0,
						"openinpresentation" : 0,
						"default_fontsize" : 10.0,
						"default_fontface" : 0,
						"default_fontname" : "Arial",
						"gridonopen" : 0,
						"gridsize" : [ 15.0, 15.0 ],
						"gridsnaponopen" : 0,
						"statusbarvisible" : 2,
						"toolbarvisible" : 1,
						"boxanimatetime" : 200,
						"imprint" : 0,
						"enablehscroll" : 1,
						"enablevscroll" : 1,
						"devicewidth" : 0.0,
						"description" : "",
						"digest" : "",
						"tags" : "",
						"boxes" : [ 							{
								"box" : 								{
									"fontname" : "Arial",
									"fontsize" : 11.595187,
									"frgb" : 0.0,
									"id" : "obj-7",
									"maxclass" : "comment",
									"numinlets" : 1,
									"numoutlets" : 0,
									"patching_rect" : [ 86.0, 67.0, 114.0, 20.0 ],
									"text" : "Escape ASCII Code"
								}

							}
, 							{
								"box" : 								{
									"comment" : "",
									"id" : "obj-2",
									"maxclass" : "outlet",
									"numinlets" : 1,
									"numoutlets" : 0,
									"patching_rect" : [ 27.0, 157.25, 25.0, 25.0 ]
								}

							}
, 							{
								"box" : 								{
									"fontname" : "Arial",
									"fontsize" : 11.595187,
									"id" : "obj-3",
									"maxclass" : "message",
									"numinlets" : 2,
									"numoutlets" : 1,
									"outlettype" : [ "" ],
									"patching_rect" : [ 27.0, 127.25, 76.0, 18.0 ],
									"text" : "fullscreen $1"
								}

							}
, 							{
								"box" : 								{
									"fontname" : "Arial",
									"fontsize" : 11.595187,
									"id" : "obj-4",
									"maxclass" : "newobj",
									"numinlets" : 0,
									"numoutlets" : 4,
									"outlettype" : [ "int", "int", "int", "int" ],
									"patching_rect" : [ 27.0, 37.0, 46.0, 20.0 ],
									"text" : "key"
								}

							}
, 							{
								"box" : 								{
									"fontname" : "Arial",
									"fontsize" : 11.595187,
									"id" : "obj-5",
									"maxclass" : "newobj",
									"numinlets" : 2,
									"numoutlets" : 2,
									"outlettype" : [ "bang", "" ],
									"patching_rect" : [ 27.0, 67.25, 57.0, 20.0 ],
									"text" : "select 27"
								}

							}
, 							{
								"box" : 								{
									"id" : "obj-6",
									"maxclass" : "toggle",
									"numinlets" : 1,
									"numoutlets" : 1,
									"outlettype" : [ "int" ],
									"parameter_enable" : 0,
									"patching_rect" : [ 27.0, 97.25, 20.0, 20.0 ]
								}

							}
 ],
						"lines" : [ 							{
								"patchline" : 								{
									"destination" : [ "obj-2", 0 ],
									"disabled" : 0,
									"hidden" : 0,
									"source" : [ "obj-3", 0 ]
								}

							}
, 							{
								"patchline" : 								{
									"destination" : [ "obj-5", 0 ],
									"disabled" : 0,
									"hidden" : 0,
									"source" : [ "obj-4", 0 ]
								}

							}
, 							{
								"patchline" : 								{
									"destination" : [ "obj-6", 0 ],
									"disabled" : 0,
									"hidden" : 0,
									"source" : [ "obj-5", 0 ]
								}

							}
, 							{
								"patchline" : 								{
									"destination" : [ "obj-3", 0 ],
									"disabled" : 0,
									"hidden" : 0,
									"source" : [ "obj-6", 0 ]
								}

							}
 ]
					}
,
					"patching_rect" : [ 330.0, 630.0, 90.0, 19.0 ],
					"presentation" : 0,
					"presentation_rect" : [ 0.0, 0.0, 0.0, 0.0 ],
					"saved_object_attributes" : 					{
						"default_fontface" : 0,
						"default_fontname" : "Arial",
						"default_fontsize" : 10.0,
						"description" : "",
						"digest" : "",
						"fontface" : 0,
						"fontname" : "Arial",
						"fontsize" : 10.0,
						"globalpatchername" : "",
						"tags" : ""
					}
,
					"text" : "p esc-fullscreen",
					"textcolor" : [ 0.0, 0.0, 0.0, 1.0 ],
					"textjustification" : 0
				}

			}
, 			{
				"box" : 				{
					"background" : 0,
					"bgcolor" : [ 1.0, 1.0, 1.0, 1.0 ],
					"bordercolor" : [ 0.5, 0.5, 0.5, 1.0 ],
					"cantchange" : 0,
					"fontface" : 0,
					"fontname" : "Arial",
					"fontsize" : 12.0,
					"hbgcolor" : [ 0.0, 0.0, 0.0, 1.0 ],
					"hidden" : 0,
					"htextcolor" : [ 1.0, 1.0, 1.0, 1.0 ],
					"htricolor" : [ 0.87, 0.82, 0.24, 1.0 ],
					"id" : "obj-38",
					"ignoreclick" : 0,
					"maxclass" : "flonum",
					"maximum" : 20.0,
					"minimum" : 1.0,
					"mouseup" : 0,
					"numdecimalplaces" : 0,
					"numinlets" : 1,
					"numoutlets" : 2,
					"outlettype" : [ "float", "bang" ],
					"outputonclick" : 0,
					"parameter_enable" : 0,
					"patching_rect" : [ 10.0, 450.0, 43.0, 20.0 ],
					"presentation" : 1,
					"presentation_rect" : [ 110.0, 250.0, 43.0, 20.0 ],
					"textcolor" : [ 0.0, 0.0, 0.0, 1.0 ],
					"triangle" : 1,
					"tricolor" : [ 0.75, 0.75, 0.75, 1.0 ],
					"triscale" : 1.0
				}

			}
, 			{
				"box" : 				{
					"background" : 0,
					"bgcolor" : [ 0.867, 0.867, 0.867, 1.0 ],
					"bgcolor2" : [ 0.867, 0.867, 0.867, 1.0 ],
					"fontface" : 0,
					"fontname" : "Arial",
					"fontsize" : 12.0,
					"gradient" : 0,
					"hidden" : 0,
					"id" : "obj-35",
					"ignoreclick" : 0,
					"maxclass" : "message",
					"numinlets" : 2,
					"numoutlets" : 1,
					"outlettype" : [ "" ],
					"patching_rect" : [ 260.0, 150.0, 32.5, 18.0 ],
					"presentation" : 1,
					"presentation_rect" : [ 110.0, 80.0, 32.5, 18.0 ],
					"text" : "0.",
					"textcolor" : [ 0.0, 0.0, 0.0, 1.0 ],
					"textjustification" : 0
				}

			}
, 			{
				"box" : 				{
					"background" : 0,
					"channels" : 2,
					"clip_size" : 0,
					"coldcolor" : [ 0.047059, 0.972549, 0.392157, 1.0 ],
					"display_range" : [ -70.0, 6.0 ],
					"focusbordercolor" : [ 0.0, 0.019608, 0.078431, 1.0 ],
					"fontface" : 1,
					"fontname" : "Arial",
					"fontsize" : 10.0,
					"hidden" : 0,
					"hotcolor" : [ 1.0, 0.756863, 0.039216, 1.0 ],
					"id" : "obj-27",
					"ignoreclick" : 0,
					"inactivecoldcolor" : [ 0.509804, 0.509804, 0.509804, 1.0 ],
					"inactivewarmcolor" : [ 0.584314, 0.584314, 0.584314, 1.0 ],
					"interp" : 10.0,
					"interval" : 20,
					"livemode" : 0,
					"maxclass" : "live.gain~",
					"metering" : 1,
					"mode" : 0,
					"modulationcolor" : [ 0.94902, 0.376471, 0.0, 1.0 ],
					"numinlets" : 2,
					"numoutlets" : 5,
					"orientation" : 0,
					"outlettype" : [ "signal", "signal", "", "float", "list" ],
					"overloadcolor" : [ 1.0, 0.039216, 0.039216, 1.0 ],
					"parameter_enable" : 1,
					"patching_rect" : [ 330.0, 325.0, 48.0, 136.0 ],
					"presentation" : 1,
					"presentation_rect" : [ 30.0, 365.0, 48.0, 136.0 ],
					"relative" : 0,
					"saved_attribute_attributes" : 					{
						"valueof" : 						{
							"parameter_longname" : "gain",
							"parameter_shortname" : "gain",
							"parameter_type" : 0,
							"parameter_mmin" : -70.0,
							"parameter_mmax" : 6.0,
							"parameter_initial_enable" : 1,
							"parameter_initial" : [ -24 ],
							"parameter_unitstyle" : 4
						}

					}
,
					"showname" : 1,
					"shownumber" : 1,
					"slidercolor" : [ 0.0, 0.019608, 0.078431, 1.0 ],
					"textcolor" : [ 0.0, 0.019608, 0.078431, 1.0 ],
					"threshold_db" : 1.0,
					"threshold_linear" : 0.01,
					"tribordercolor" : [ 0.27451, 0.32549, 0.4, 1.0 ],
					"tricolor" : [ 0.572549, 0.615686, 0.658824, 1.0 ],
					"trioncolor" : [ 0.0, 0.019608, 0.078431, 1.0 ],
					"varname" : "live.gain~",
					"warmcolor" : [ 0.764706, 0.972549, 0.392157, 1.0 ]
				}

			}
, 			{
				"box" : 				{
					"background" : 0,
					"bgcolor" : [ 0.51, 0.51, 0.51, 1.0 ],
					"border" : 0.0,
					"bordercolor" : [ 0.5, 0.5, 0.5, 1.0 ],
					"hidden" : 0,
					"id" : "obj-4",
					"ignoreclick" : 0,
					"local" : 0,
					"maxclass" : "ezdac~",
					"numinlets" : 2,
					"numoutlets" : 0,
					"offgradcolor1" : [ 0.87, 0.87, 0.87, 1.0 ],
					"offgradcolor2" : [ 0.7, 0.7, 0.73, 1.0 ],
					"ongradcolor1" : [ 1.0, 0.54902, 0.0, 1.0 ],
					"ongradcolor2" : [ 1.0, 0.54902, 0.0, 1.0 ],
					"patching_rect" : [ 330.0, 480.0, 45.0, 45.0 ],
					"presentation" : 1,
					"presentation_rect" : [ 30.0, 520.0, 45.0, 45.0 ]
				}

			}
, 			{
				"box" : 				{
					"background" : 0,
					"bgcolor" : [ 1.0, 1.0, 1.0, 1.0 ],
					"bordercolor" : [ 0.5, 0.5, 0.5, 1.0 ],
					"cantchange" : 0,
					"fontface" : 0,
					"fontname" : "Arial",
					"fontsize" : 12.0,
					"hbgcolor" : [ 0.0, 0.0, 0.0, 1.0 ],
					"hidden" : 0,
					"htextcolor" : [ 1.0, 1.0, 1.0, 1.0 ],
					"htricolor" : [ 0.87, 0.82, 0.24, 1.0 ],
					"id" : "obj-26",
					"ignoreclick" : 0,
					"maxclass" : "flonum",
					"maximum" : "<none>",
					"minimum" : "<none>",
					"mouseup" : 0,
					"numdecimalplaces" : 0,
					"numinlets" : 1,
					"numoutlets" : 2,
					"outlettype" : [ "float", "bang" ],
					"outputonclick" : 0,
					"parameter_enable" : 0,
					"patching_rect" : [ 110.0, 80.0, 50.0, 20.0 ],
					"presentation" : 1,
					"presentation_rect" : [ 110.0, 20.0, 50.0, 20.0 ],
					"textcolor" : [ 0.0, 0.0, 0.0, 1.0 ],
					"triangle" : 1,
					"tricolor" : [ 0.75, 0.75, 0.75, 1.0 ],
					"triscale" : 1.0
				}

			}
, 			{
				"box" : 				{
					"background" : 0,
					"bgcolor" : [ 1.0, 1.0, 1.0, 1.0 ],
					"color" : [ 0.8, 0.84, 0.71, 1.0 ],
					"fontface" : 0,
					"fontname" : "Arial",
					"fontsize" : 11.595187,
					"hidden" : 0,
					"id" : "obj-21",
					"ignoreclick" : 0,
					"linecount" : 5,
					"maxclass" : "newobj",
					"numinlets" : 9,
					"numoutlets" : 2,
					"outlettype" : [ "jit_matrix", "" ],
					"patching_rect" : [ 70.0, 661.0, 178.0, 71.0 ],
					"presentation" : 0,
					"presentation_rect" : [ 0.0, 0.0, 0.0, 0.0 ],
					"text" : "jit.gl.mesh lissajous @color 0. 1. 0. 0.8 @draw_mode line_strip @blend_enable 1 @smooth_shading 0 @antialias 1 @line_width 4",
					"textcolor" : [ 0.0, 0.0, 0.0, 1.0 ],
					"textjustification" : 0
				}

			}
, 			{
				"box" : 				{
					"background" : 0,
					"bgcolor" : [ 1.0, 1.0, 1.0, 1.0 ],
					"color" : [ 0.8, 0.84, 0.71, 1.0 ],
					"fontface" : 0,
					"fontname" : "Arial",
					"fontsize" : 12.0,
					"hidden" : 0,
					"id" : "obj-18",
					"ignoreclick" : 0,
					"maxclass" : "newobj",
					"numinlets" : 1,
					"numoutlets" : 2,
					"outlettype" : [ "bang", "" ],
					"patching_rect" : [ 330.0, 660.0, 195.0, 20.0 ],
					"presentation" : 0,
					"presentation_rect" : [ 0.0, 0.0, 0.0, 0.0 ],
					"text" : "jit.window lissajous @size 800 800",
					"textcolor" : [ 0.0, 0.0, 0.0, 1.0 ],
					"textjustification" : 0
				}

			}
, 			{
				"box" : 				{
					"background" : 0,
					"bgcolor" : [ 1.0, 1.0, 1.0, 1.0 ],
					"color" : [ 0.8, 0.84, 0.71, 1.0 ],
					"fontface" : 0,
					"fontname" : "Arial",
					"fontsize" : 12.0,
					"hidden" : 0,
					"id" : "obj-17",
					"ignoreclick" : 0,
					"maxclass" : "newobj",
					"numinlets" : 1,
					"numoutlets" : 3,
					"outlettype" : [ "bang", "bang", "erase" ],
					"patching_rect" : [ 470.0, 260.0, 67.0, 20.0 ],
					"presentation" : 0,
					"presentation_rect" : [ 0.0, 0.0, 0.0, 0.0 ],
					"text" : "t b b erase",
					"textcolor" : [ 0.0, 0.0, 0.0, 1.0 ],
					"textjustification" : 0
				}

			}
, 			{
				"box" : 				{
					"background" : 0,
					"bgcolor" : [ 1.0, 1.0, 1.0, 1.0 ],
					"color" : [ 0.8, 0.84, 0.71, 1.0 ],
					"fontface" : 0,
					"fontname" : "Arial",
					"fontsize" : 12.0,
					"hidden" : 0,
					"id" : "obj-6",
					"ignoreclick" : 0,
					"linecount" : 8,
					"maxclass" : "newobj",
					"numinlets" : 1,
					"numoutlets" : 2,
					"outlettype" : [ "bang", "" ],
					"patching_rect" : [ 480.0, 440.0, 109.0, 114.0 ],
					"presentation" : 0,
					"presentation_rect" : [ 0.0, 0.0, 0.0, 0.0 ],
					"text" : "jit.gl.render lissajous @depth_enable 0 @camera 0. 0. 2.43 @fsaa 1 @blend_enable 1 @erase_color 0. 0. 0. 0.1",
					"textcolor" : [ 0.0, 0.0, 0.0, 1.0 ],
					"textjustification" : 0
				}

			}
, 			{
				"box" : 				{
					"background" : 0,
					"bgcolor" : [ 1.0, 1.0, 1.0, 1.0 ],
					"bordercolor" : [ 0.5, 0.5, 0.5, 1.0 ],
					"checkedcolor" : [ 0.0, 0.0, 0.0, 1.0 ],
					"hidden" : 0,
					"id" : "obj-55",
					"ignoreclick" : 0,
					"maxclass" : "toggle",
					"numinlets" : 1,
					"numoutlets" : 1,
					"outlettype" : [ "int" ],
					"parameter_enable" : 0,
					"patching_rect" : [ 460.0, 160.0, 20.0, 20.0 ],
					"presentation" : 1,
					"presentation_rect" : [ 120.0, 320.0, 20.0, 20.0 ]
				}

			}
, 			{
				"box" : 				{
					"background" : 0,
					"bgcolor" : [ 1.0, 1.0, 1.0, 1.0 ],
					"color" : [ 0.8, 0.84, 0.71, 1.0 ],
					"fontface" : 0,
					"fontname" : "Arial",
					"fontsize" : 11.595187,
					"hidden" : 0,
					"id" : "obj-56",
					"ignoreclick" : 0,
					"maxclass" : "newobj",
					"numinlets" : 2,
					"numoutlets" : 1,
					"outlettype" : [ "bang" ],
					"patching_rect" : [ 470.0, 230.0, 63.0, 19.0 ],
					"presentation" : 0,
					"presentation_rect" : [ 0.0, 0.0, 0.0, 0.0 ],
					"text" : "qmetro 10",
					"textcolor" : [ 0.0, 0.0, 0.0, 1.0 ],
					"textjustification" : 0
				}

			}
, 			{
				"box" : 				{
					"background" : 0,
					"bgcolor" : [ 1.0, 1.0, 1.0, 1.0 ],
					"color" : [ 0.8, 0.84, 0.71, 1.0 ],
					"fontface" : 0,
					"fontname" : "Arial",
					"fontsize" : 12.0,
					"hidden" : 0,
					"id" : "obj-13",
					"ignoreclick" : 0,
					"linecount" : 3,
					"maxclass" : "newobj",
					"numinlets" : 2,
					"numoutlets" : 2,
					"outlettype" : [ "jit_matrix", "" ],
					"patching_rect" : [ 110.0, 320.0, 95.0, 47.0 ],
					"presentation" : 0,
					"presentation_rect" : [ 0.0, 0.0, 0.0, 0.0 ],
					"text" : "jit.catch~ 2 @framesize 2048 @mode 3",
					"textcolor" : [ 0.0, 0.0, 0.0, 1.0 ],
					"textjustification" : 0
				}

			}
, 			{
				"box" : 				{
					"background" : 0,
					"bgcolor" : [ 1.0, 1.0, 1.0, 1.0 ],
					"color" : [ 0.8, 0.84, 0.71, 1.0 ],
					"fontface" : 0,
					"fontname" : "Arial",
					"fontsize" : 12.0,
					"hidden" : 0,
					"id" : "obj-9",
					"ignoreclick" : 0,
					"maxclass" : "newobj",
					"numinlets" : 2,
					"numoutlets" : 1,
					"outlettype" : [ "signal" ],
					"patching_rect" : [ 150.0, 240.0, 45.0, 20.0 ],
					"presentation" : 0,
					"presentation_rect" : [ 0.0, 0.0, 0.0, 0.0 ],
					"text" : "cycle~",
					"textcolor" : [ 0.0, 0.0, 0.0, 1.0 ],
					"textjustification" : 0
				}

			}
, 			{
				"box" : 				{
					"background" : 0,
					"bgcolor" : [ 1.0, 1.0, 1.0, 1.0 ],
					"color" : [ 0.8, 0.84, 0.71, 1.0 ],
					"fontface" : 0,
					"fontname" : "Arial",
					"fontsize" : 12.0,
					"hidden" : 0,
					"id" : "obj-8",
					"ignoreclick" : 0,
					"maxclass" : "newobj",
					"numinlets" : 2,
					"numoutlets" : 1,
					"outlettype" : [ "signal" ],
					"patching_rect" : [ 110.0, 180.0, 54.0, 20.0 ],
					"presentation" : 0,
					"presentation_rect" : [ 0.0, 0.0, 0.0, 0.0 ],
					"text" : "phasor~",
					"textcolor" : [ 0.0, 0.0, 0.0, 1.0 ],
					"textjustification" : 0
				}

			}
, 			{
				"box" : 				{
					"background" : 0,
					"bgcolor" : [ 1.0, 1.0, 1.0, 1.0 ],
					"bordercolor" : [ 0.5, 0.5, 0.5, 1.0 ],
					"cantchange" : 0,
					"fontface" : 0,
					"fontname" : "Arial",
					"fontsize" : 12.0,
					"format" : 0,
					"hbgcolor" : [ 0.0, 0.0, 0.0, 1.0 ],
					"hidden" : 0,
					"htextcolor" : [ 1.0, 1.0, 1.0, 1.0 ],
					"htricolor" : [ 0.87, 0.82, 0.24, 1.0 ],
					"id" : "obj-7",
					"ignoreclick" : 0,
					"maxclass" : "number",
					"maximum" : "<none>",
					"minimum" : 1,
					"mouseup" : 0,
					"numinlets" : 1,
					"numoutlets" : 2,
					"outlettype" : [ "int", "bang" ],
					"outputonclick" : 0,
					"parameter_enable" : 0,
					"patching_rect" : [ 190.0, 80.0, 50.0, 20.0 ],
					"presentation" : 1,
					"presentation_rect" : [ 110.0, 50.0, 50.0, 20.0 ],
					"textcolor" : [ 0.0, 0.0, 0.0, 1.0 ],
					"triangle" : 1,
					"tricolor" : [ 0.75, 0.75, 0.75, 1.0 ],
					"triscale" : 1.0
				}

			}
, 			{
				"box" : 				{
					"background" : 0,
					"bgcolor" : [ 1.0, 1.0, 1.0, 1.0 ],
					"color" : [ 0.8, 0.84, 0.71, 1.0 ],
					"fontface" : 0,
					"fontname" : "Arial",
					"fontsize" : 12.0,
					"hidden" : 0,
					"id" : "obj-32",
					"ignoreclick" : 0,
					"maxclass" : "newobj",
					"numinlets" : 1,
					"numoutlets" : 1,
					"outlettype" : [ "float" ],
					"patcher" : 					{
						"fileversion" : 1,
						"appversion" : 						{
							"major" : 6,
							"minor" : 1,
							"revision" : 9,
							"architecture" : "x86"
						}
,
						"rect" : [ 547.0, 205.0, 640.0, 480.0 ],
						"bglocked" : 0,
						"openinpresentation" : 0,
						"default_fontsize" : 12.0,
						"default_fontface" : 0,
						"default_fontname" : "Arial",
						"gridonopen" : 0,
						"gridsize" : [ 15.0, 15.0 ],
						"gridsnaponopen" : 0,
						"statusbarvisible" : 2,
						"toolbarvisible" : 1,
						"boxanimatetime" : 200,
						"imprint" : 0,
						"enablehscroll" : 1,
						"enablevscroll" : 1,
						"devicewidth" : 0.0,
						"description" : "",
						"digest" : "",
						"tags" : "",
						"boxes" : [ 							{
								"box" : 								{
									"id" : "obj-3",
									"maxclass" : "button",
									"numinlets" : 1,
									"numoutlets" : 1,
									"outlettype" : [ "bang" ],
									"patching_rect" : [ 171.0, 146.0, 20.0, 20.0 ]
								}

							}
, 							{
								"box" : 								{
									"comment" : "",
									"id" : "obj-1",
									"maxclass" : "inlet",
									"numinlets" : 0,
									"numoutlets" : 1,
									"outlettype" : [ "bang" ],
									"patching_rect" : [ 140.0, 86.0, 25.0, 25.0 ]
								}

							}
, 							{
								"box" : 								{
									"fontname" : "Arial",
									"fontsize" : 11.595187,
									"frgb" : 0.0,
									"id" : "obj-14",
									"maxclass" : "comment",
									"numinlets" : 1,
									"numoutlets" : 0,
									"patching_rect" : [ 120.0, 228.0, 108.0, 20.0 ],
									"text" : "samples per scope"
								}

							}
, 							{
								"box" : 								{
									"fontname" : "Arial",
									"fontsize" : 11.595187,
									"frgb" : 0.0,
									"id" : "obj-15",
									"maxclass" : "comment",
									"numinlets" : 1,
									"numoutlets" : 0,
									"patching_rect" : [ 124.0, 255.0, 105.0, 20.0 ],
									"text" : "scope frequency"
								}

							}
, 							{
								"box" : 								{
									"bgcolor" : [ 0.866667, 0.866667, 0.866667, 1.0 ],
									"fontname" : "Arial",
									"fontsize" : 11.595187,
									"htextcolor" : [ 0.870588, 0.870588, 0.870588, 1.0 ],
									"id" : "obj-19",
									"maxclass" : "flonum",
									"numinlets" : 1,
									"numoutlets" : 2,
									"outlettype" : [ "float", "bang" ],
									"parameter_enable" : 0,
									"patching_rect" : [ 50.0, 255.0, 65.0, 20.0 ],
									"triscale" : 0.9
								}

							}
, 							{
								"box" : 								{
									"fontname" : "Arial",
									"fontsize" : 11.595187,
									"id" : "obj-21",
									"maxclass" : "newobj",
									"numinlets" : 2,
									"numoutlets" : 1,
									"outlettype" : [ "float" ],
									"patching_rect" : [ 50.0, 228.0, 40.0, 20.0 ],
									"text" : "/ 256."
								}

							}
, 							{
								"box" : 								{
									"bgcolor" : [ 0.866667, 0.866667, 0.866667, 1.0 ],
									"fontname" : "Arial",
									"fontsize" : 11.595187,
									"htextcolor" : [ 0.870588, 0.870588, 0.870588, 1.0 ],
									"id" : "obj-22",
									"maxclass" : "flonum",
									"numinlets" : 1,
									"numoutlets" : 2,
									"outlettype" : [ "float", "bang" ],
									"parameter_enable" : 0,
									"patching_rect" : [ 50.0, 203.0, 68.0, 20.0 ],
									"triscale" : 0.9
								}

							}
, 							{
								"box" : 								{
									"fontname" : "Arial",
									"fontsize" : 11.595187,
									"id" : "obj-23",
									"maxclass" : "newobj",
									"numinlets" : 1,
									"numoutlets" : 4,
									"outlettype" : [ "int", "float", "int", "int" ],
									"patching_rect" : [ 50.0, 100.0, 61.0, 20.0 ],
									"text" : "dspstate~"
								}

							}
, 							{
								"box" : 								{
									"fontname" : "Arial",
									"fontsize" : 11.595187,
									"frgb" : 0.0,
									"id" : "obj-38",
									"maxclass" : "comment",
									"numinlets" : 1,
									"numoutlets" : 0,
									"patching_rect" : [ 135.0, 203.0, 82.0, 20.0 ],
									"text" : "Sampling rate"
								}

							}
, 							{
								"box" : 								{
									"comment" : "",
									"id" : "obj-31",
									"maxclass" : "outlet",
									"numinlets" : 1,
									"numoutlets" : 0,
									"patching_rect" : [ 50.0, 329.0, 25.0, 25.0 ]
								}

							}
 ],
						"lines" : [ 							{
								"patchline" : 								{
									"destination" : [ "obj-3", 0 ],
									"disabled" : 0,
									"hidden" : 0,
									"source" : [ "obj-1", 0 ]
								}

							}
, 							{
								"patchline" : 								{
									"destination" : [ "obj-31", 0 ],
									"disabled" : 0,
									"hidden" : 0,
									"source" : [ "obj-19", 0 ]
								}

							}
, 							{
								"patchline" : 								{
									"destination" : [ "obj-19", 0 ],
									"disabled" : 0,
									"hidden" : 0,
									"source" : [ "obj-21", 0 ]
								}

							}
, 							{
								"patchline" : 								{
									"destination" : [ "obj-21", 0 ],
									"disabled" : 0,
									"hidden" : 0,
									"source" : [ "obj-22", 0 ]
								}

							}
, 							{
								"patchline" : 								{
									"destination" : [ "obj-22", 0 ],
									"disabled" : 0,
									"hidden" : 0,
									"source" : [ "obj-23", 1 ]
								}

							}
, 							{
								"patchline" : 								{
									"destination" : [ "obj-19", 0 ],
									"disabled" : 0,
									"hidden" : 0,
									"source" : [ "obj-3", 0 ]
								}

							}
 ]
					}
,
					"patching_rect" : [ 110.0, 50.0, 108.0, 20.0 ],
					"presentation" : 0,
					"presentation_rect" : [ 0.0, 0.0, 0.0, 0.0 ],
					"saved_object_attributes" : 					{
						"default_fontface" : 0,
						"default_fontname" : "Arial",
						"default_fontsize" : 12.0,
						"description" : "",
						"digest" : "",
						"fontface" : 0,
						"fontname" : "Arial",
						"fontsize" : 12.0,
						"globalpatchername" : "",
						"tags" : ""
					}
,
					"text" : "p calc_scope_freq",
					"textcolor" : [ 0.0, 0.0, 0.0, 1.0 ],
					"textjustification" : 0
				}

			}
, 			{
				"box" : 				{
					"background" : 0,
					"bgcolor" : [ 1.0, 1.0, 1.0, 1.0 ],
					"color" : [ 0.8, 0.84, 0.71, 1.0 ],
					"fontface" : 0,
					"fontname" : "Arial",
					"fontsize" : 12.0,
					"hidden" : 0,
					"id" : "obj-3",
					"ignoreclick" : 0,
					"maxclass" : "newobj",
					"numinlets" : 2,
					"numoutlets" : 1,
					"outlettype" : [ "signal" ],
					"patching_rect" : [ 170.0, 140.0, 39.0, 20.0 ],
					"presentation" : 0,
					"presentation_rect" : [ 0.0, 0.0, 0.0, 0.0 ],
					"text" : "*~ 1.",
					"textcolor" : [ 0.0, 0.0, 0.0, 1.0 ],
					"textjustification" : 0
				}

			}
, 			{
				"box" : 				{
					"background" : 0,
					"bgcolor" : [ 1.0, 1.0, 1.0, 1.0 ],
					"color" : [ 0.8, 0.84, 0.71, 1.0 ],
					"fontface" : 0,
					"fontname" : "Arial",
					"fontsize" : 12.0,
					"hidden" : 0,
					"id" : "obj-2",
					"ignoreclick" : 0,
					"maxclass" : "newobj",
					"numinlets" : 2,
					"numoutlets" : 1,
					"outlettype" : [ "signal" ],
					"patching_rect" : [ 80.0, 240.0, 45.0, 20.0 ],
					"presentation" : 0,
					"presentation_rect" : [ 0.0, 0.0, 0.0, 0.0 ],
					"text" : "cycle~",
					"textcolor" : [ 0.0, 0.0, 0.0, 1.0 ],
					"textjustification" : 0
				}

			}
, 			{
				"box" : 				{
					"background" : 0,
					"bgcolor" : [ 0.867, 0.867, 0.867, 1.0 ],
					"bgcolor2" : [ 0.867, 0.867, 0.867, 1.0 ],
					"fontface" : 0,
					"fontname" : "Arial",
					"fontsize" : 12.0,
					"gradient" : 0,
					"hidden" : 0,
					"id" : "obj-36",
					"ignoreclick" : 0,
					"maxclass" : "message",
					"numinlets" : 2,
					"numoutlets" : 1,
					"outlettype" : [ "" ],
					"patching_rect" : [ 10.0, 480.0, 79.0, 18.0 ],
					"presentation" : 0,
					"presentation_rect" : [ 0.0, 0.0, 0.0, 0.0 ],
					"text" : "line_width $1",
					"textcolor" : [ 0.0, 0.0, 0.0, 1.0 ],
					"textjustification" : 0
				}

			}
, 			{
				"box" : 				{
					"background" : 0,
					"bgcolor" : [ 0.867, 0.867, 0.867, 1.0 ],
					"bgcolor2" : [ 0.867, 0.867, 0.867, 1.0 ],
					"fontface" : 0,
					"fontname" : "Arial",
					"fontsize" : 12.0,
					"gradient" : 0,
					"hidden" : 0,
					"id" : "obj-46",
					"ignoreclick" : 0,
					"maxclass" : "message",
					"numinlets" : 2,
					"numoutlets" : 1,
					"outlettype" : [ "" ],
					"patching_rect" : [ 580.0, 330.0, 123.0, 18.0 ],
					"presentation" : 0,
					"presentation_rect" : [ 0.0, 0.0, 0.0, 0.0 ],
					"text" : "erase_color $1 $2 $3",
					"textcolor" : [ 0.0, 0.0, 0.0, 1.0 ],
					"textjustification" : 0
				}

			}
, 			{
				"box" : 				{
					"background" : 0,
					"bgcolor" : [ 0.867, 0.867, 0.867, 1.0 ],
					"bgcolor2" : [ 0.867, 0.867, 0.867, 1.0 ],
					"fontface" : 0,
					"fontname" : "Arial",
					"fontsize" : 12.0,
					"gradient" : 0,
					"hidden" : 0,
					"id" : "obj-69",
					"ignoreclick" : 0,
					"maxclass" : "message",
					"numinlets" : 2,
					"numoutlets" : 1,
					"outlettype" : [ "" ],
					"patching_rect" : [ 760.0, 360.0, 50.0, 18.0 ],
					"presentation" : 0,
					"presentation_rect" : [ 0.0, 0.0, 0.0, 0.0 ],
					"text" : "set $1",
					"textcolor" : [ 0.0, 0.0, 0.0, 1.0 ],
					"textjustification" : 0
				}

			}
, 			{
				"box" : 				{
					"background" : 0,
					"bgcolor" : [ 0.867, 0.867, 0.867, 1.0 ],
					"bgcolor2" : [ 0.867, 0.867, 0.867, 1.0 ],
					"fontface" : 0,
					"fontname" : "Arial",
					"fontsize" : 12.0,
					"gradient" : 0,
					"hidden" : 0,
					"id" : "obj-16",
					"ignoreclick" : 0,
					"maxclass" : "message",
					"numinlets" : 2,
					"numoutlets" : 1,
					"outlettype" : [ "" ],
					"patching_rect" : [ 580.0, 170.0, 77.0, 18.0 ],
					"presentation" : 0,
					"presentation_rect" : [ 0.0, 0.0, 0.0, 0.0 ],
					"text" : "saturation 1.",
					"textcolor" : [ 0.0, 0.0, 0.0, 1.0 ],
					"textjustification" : 0
				}

			}
 ],
		"lines" : [ 			{
				"patchline" : 				{
					"color" : [ 0.0, 0.0, 0.0, 1.0 ],
					"destination" : [ "obj-55", 0 ],
					"disabled" : 0,
					"hidden" : 0,
					"source" : [ "obj-10", 0 ]
				}

			}
, 			{
				"patchline" : 				{
					"color" : [ 0.0, 0.0, 0.0, 1.0 ],
					"destination" : [ "obj-73", 0 ],
					"disabled" : 0,
					"hidden" : 0,
					"source" : [ "obj-10", 0 ]
				}

			}
, 			{
				"patchline" : 				{
					"color" : [ 0.0, 0.0, 0.0, 1.0 ],
					"destination" : [ "obj-46", 0 ],
					"disabled" : 0,
					"hidden" : 0,
					"source" : [ "obj-12", 0 ]
				}

			}
, 			{
				"patchline" : 				{
					"color" : [ 0.0, 0.0, 0.0, 1.0 ],
					"destination" : [ "obj-21", 0 ],
					"disabled" : 0,
					"hidden" : 0,
					"source" : [ "obj-13", 0 ]
				}

			}
, 			{
				"patchline" : 				{
					"color" : [ 0.0, 0.0, 0.0, 1.0 ],
					"destination" : [ "obj-35", 0 ],
					"disabled" : 0,
					"hidden" : 0,
					"source" : [ "obj-14", 0 ]
				}

			}
, 			{
				"patchline" : 				{
					"color" : [ 0.0, 0.0, 0.0, 1.0 ],
					"destination" : [ "obj-5", 0 ],
					"disabled" : 0,
					"hidden" : 0,
					"source" : [ "obj-14", 0 ]
				}

			}
, 			{
				"patchline" : 				{
					"color" : [ 0.0, 0.0, 0.0, 1.0 ],
					"destination" : [ "obj-16", 0 ],
					"disabled" : 0,
					"hidden" : 0,
					"source" : [ "obj-15", 0 ]
				}

			}
, 			{
				"patchline" : 				{
					"color" : [ 0.0, 0.0, 0.0, 1.0 ],
					"destination" : [ "obj-12", 0 ],
					"disabled" : 0,
					"hidden" : 0,
					"source" : [ "obj-16", 0 ]
				}

			}
, 			{
				"patchline" : 				{
					"color" : [ 0.0, 0.0, 0.0, 1.0 ],
					"destination" : [ "obj-54", 0 ],
					"disabled" : 0,
					"hidden" : 0,
					"source" : [ "obj-16", 0 ]
				}

			}
, 			{
				"patchline" : 				{
					"color" : [ 0.0, 0.0, 0.0, 1.0 ],
					"destination" : [ "obj-13", 0 ],
					"disabled" : 0,
					"hidden" : 0,
					"source" : [ "obj-17", 1 ]
				}

			}
, 			{
				"patchline" : 				{
					"color" : [ 0.0, 0.0, 0.0, 1.0 ],
					"destination" : [ "obj-6", 0 ],
					"disabled" : 0,
					"hidden" : 0,
					"source" : [ "obj-17", 2 ]
				}

			}
, 			{
				"patchline" : 				{
					"color" : [ 0.0, 0.0, 0.0, 1.0 ],
					"destination" : [ "obj-6", 0 ],
					"disabled" : 0,
					"hidden" : 0,
					"source" : [ "obj-17", 0 ]
				}

			}
, 			{
				"patchline" : 				{
					"color" : [ 0.0, 0.0, 0.0, 1.0 ],
					"destination" : [ "obj-13", 0 ],
					"disabled" : 0,
					"hidden" : 0,
					"source" : [ "obj-2", 0 ]
				}

			}
, 			{
				"patchline" : 				{
					"color" : [ 0.0, 0.0, 0.0, 1.0 ],
					"destination" : [ "obj-27", 0 ],
					"disabled" : 0,
					"hidden" : 0,
					"source" : [ "obj-2", 0 ]
				}

			}
, 			{
				"patchline" : 				{
					"color" : [ 0.0, 0.0, 0.0, 1.0 ],
					"destination" : [ "obj-21", 0 ],
					"disabled" : 0,
					"hidden" : 0,
					"source" : [ "obj-20", 0 ]
				}

			}
, 			{
				"patchline" : 				{
					"color" : [ 0.0, 0.0, 0.0, 1.0 ],
					"destination" : [ "obj-64", 0 ],
					"disabled" : 0,
					"hidden" : 0,
					"source" : [ "obj-26", 0 ]
				}

			}
, 			{
				"patchline" : 				{
					"color" : [ 0.0, 0.0, 0.0, 1.0 ],
					"destination" : [ "obj-4", 1 ],
					"disabled" : 0,
					"hidden" : 0,
					"midpoints" : [ 346.75, 472.5, 365.5, 472.5 ],
					"source" : [ "obj-27", 1 ]
				}

			}
, 			{
				"patchline" : 				{
					"color" : [ 0.0, 0.0, 0.0, 1.0 ],
					"destination" : [ "obj-4", 0 ],
					"disabled" : 0,
					"hidden" : 0,
					"source" : [ "obj-27", 0 ]
				}

			}
, 			{
				"patchline" : 				{
					"color" : [ 0.0, 0.0, 0.0, 1.0 ],
					"destination" : [ "obj-63", 0 ],
					"disabled" : 0,
					"hidden" : 0,
					"source" : [ "obj-3", 0 ]
				}

			}
, 			{
				"patchline" : 				{
					"color" : [ 0.0, 0.0, 0.0, 1.0 ],
					"destination" : [ "obj-26", 0 ],
					"disabled" : 0,
					"hidden" : 0,
					"source" : [ "obj-32", 0 ]
				}

			}
, 			{
				"patchline" : 				{
					"color" : [ 0.0, 0.0, 0.0, 1.0 ],
					"destination" : [ "obj-63", 1 ],
					"disabled" : 0,
					"hidden" : 0,
					"midpoints" : [ 269.5, 173.5, 214.5, 173.5 ],
					"source" : [ "obj-35", 0 ]
				}

			}
, 			{
				"patchline" : 				{
					"color" : [ 0.0, 0.0, 0.0, 1.0 ],
					"destination" : [ "obj-8", 1 ],
					"disabled" : 0,
					"hidden" : 0,
					"midpoints" : [ 269.5, 173.5, 154.5, 173.5 ],
					"source" : [ "obj-35", 0 ]
				}

			}
, 			{
				"patchline" : 				{
					"color" : [ 0.0, 0.0, 0.0, 1.0 ],
					"destination" : [ "obj-21", 0 ],
					"disabled" : 0,
					"hidden" : 0,
					"source" : [ "obj-36", 0 ]
				}

			}
, 			{
				"patchline" : 				{
					"color" : [ 0.0, 0.0, 0.0, 1.0 ],
					"destination" : [ "obj-36", 0 ],
					"disabled" : 0,
					"hidden" : 0,
					"source" : [ "obj-38", 0 ]
				}

			}
, 			{
				"patchline" : 				{
					"color" : [ 0.0, 0.0, 0.0, 1.0 ],
					"destination" : [ "obj-20", 0 ],
					"disabled" : 0,
					"hidden" : 0,
					"source" : [ "obj-41", 1 ]
				}

			}
, 			{
				"patchline" : 				{
					"color" : [ 0.0, 0.0, 0.0, 1.0 ],
					"destination" : [ "obj-66", 0 ],
					"disabled" : 0,
					"hidden" : 0,
					"source" : [ "obj-46", 0 ]
				}

			}
, 			{
				"patchline" : 				{
					"color" : [ 0.0, 0.0, 0.0, 1.0 ],
					"destination" : [ "obj-16", 0 ],
					"disabled" : 0,
					"hidden" : 0,
					"source" : [ "obj-5", 0 ]
				}

			}
, 			{
				"patchline" : 				{
					"color" : [ 0.0, 0.0, 0.0, 1.0 ],
					"destination" : [ "obj-57", 0 ],
					"disabled" : 0,
					"hidden" : 0,
					"source" : [ "obj-54", 0 ]
				}

			}
, 			{
				"patchline" : 				{
					"color" : [ 0.0, 0.0, 0.0, 1.0 ],
					"destination" : [ "obj-56", 0 ],
					"disabled" : 0,
					"hidden" : 0,
					"source" : [ "obj-55", 0 ]
				}

			}
, 			{
				"patchline" : 				{
					"color" : [ 0.0, 0.0, 0.0, 1.0 ],
					"destination" : [ "obj-17", 0 ],
					"disabled" : 0,
					"hidden" : 0,
					"source" : [ "obj-56", 0 ]
				}

			}
, 			{
				"patchline" : 				{
					"color" : [ 0.0, 0.0, 0.0, 1.0 ],
					"destination" : [ "obj-21", 1 ],
					"disabled" : 0,
					"hidden" : 0,
					"source" : [ "obj-57", 0 ]
				}

			}
, 			{
				"patchline" : 				{
					"color" : [ 0.0, 0.0, 0.0, 1.0 ],
					"destination" : [ "obj-32", 0 ],
					"disabled" : 0,
					"hidden" : 0,
					"source" : [ "obj-58", 0 ]
				}

			}
, 			{
				"patchline" : 				{
					"color" : [ 0.0, 0.0, 0.0, 1.0 ],
					"destination" : [ "obj-3", 1 ],
					"disabled" : 0,
					"hidden" : 0,
					"source" : [ "obj-61", 0 ]
				}

			}
, 			{
				"patchline" : 				{
					"color" : [ 0.0, 0.0, 0.0, 1.0 ],
					"destination" : [ "obj-65", 0 ],
					"disabled" : 0,
					"hidden" : 0,
					"source" : [ "obj-63", 0 ]
				}

			}
, 			{
				"patchline" : 				{
					"color" : [ 0.0, 0.0, 0.0, 1.0 ],
					"destination" : [ "obj-3", 0 ],
					"disabled" : 0,
					"hidden" : 0,
					"source" : [ "obj-64", 0 ]
				}

			}
, 			{
				"patchline" : 				{
					"color" : [ 0.0, 0.0, 0.0, 1.0 ],
					"destination" : [ "obj-8", 0 ],
					"disabled" : 0,
					"hidden" : 0,
					"source" : [ "obj-64", 0 ]
				}

			}
, 			{
				"patchline" : 				{
					"color" : [ 0.0, 0.0, 0.0, 1.0 ],
					"destination" : [ "obj-9", 1 ],
					"disabled" : 0,
					"hidden" : 0,
					"source" : [ "obj-65", 0 ]
				}

			}
, 			{
				"patchline" : 				{
					"color" : [ 0.0, 0.0, 0.0, 1.0 ],
					"destination" : [ "obj-6", 0 ],
					"disabled" : 0,
					"hidden" : 0,
					"source" : [ "obj-66", 0 ]
				}

			}
, 			{
				"patchline" : 				{
					"color" : [ 0.0, 0.0, 0.0, 1.0 ],
					"destination" : [ "obj-69", 0 ],
					"disabled" : 0,
					"hidden" : 0,
					"source" : [ "obj-68", 0 ]
				}

			}
, 			{
				"patchline" : 				{
					"color" : [ 0.0, 0.0, 0.0, 1.0 ],
					"destination" : [ "obj-71", 0 ],
					"disabled" : 0,
					"hidden" : 0,
					"source" : [ "obj-68", 0 ]
				}

			}
, 			{
				"patchline" : 				{
					"color" : [ 0.0, 0.0, 0.0, 1.0 ],
					"destination" : [ "obj-66", 0 ],
					"disabled" : 0,
					"hidden" : 0,
					"source" : [ "obj-69", 0 ]
				}

			}
, 			{
				"patchline" : 				{
					"color" : [ 0.0, 0.0, 0.0, 1.0 ],
					"destination" : [ "obj-61", 0 ],
					"disabled" : 0,
					"hidden" : 0,
					"source" : [ "obj-7", 0 ]
				}

			}
, 			{
				"patchline" : 				{
					"color" : [ 0.0, 0.0, 0.0, 1.0 ],
					"destination" : [ "obj-12", 0 ],
					"disabled" : 0,
					"hidden" : 0,
					"source" : [ "obj-71", 0 ]
				}

			}
, 			{
				"patchline" : 				{
					"color" : [ 0.0, 0.0, 0.0, 1.0 ],
					"destination" : [ "obj-68", 0 ],
					"disabled" : 0,
					"hidden" : 0,
					"source" : [ "obj-72", 0 ]
				}

			}
, 			{
				"patchline" : 				{
					"color" : [ 0.0, 0.0, 0.0, 1.0 ],
					"destination" : [ "obj-14", 0 ],
					"disabled" : 0,
					"hidden" : 0,
					"source" : [ "obj-73", 1 ]
				}

			}
, 			{
				"patchline" : 				{
					"color" : [ 0.0, 0.0, 0.0, 1.0 ],
					"destination" : [ "obj-27", 0 ],
					"disabled" : 0,
					"hidden" : 0,
					"source" : [ "obj-73", 2 ]
				}

			}
, 			{
				"patchline" : 				{
					"color" : [ 0.0, 0.0, 0.0, 1.0 ],
					"destination" : [ "obj-55", 0 ],
					"disabled" : 0,
					"hidden" : 0,
					"source" : [ "obj-73", 2 ]
				}

			}
, 			{
				"patchline" : 				{
					"color" : [ 0.0, 0.0, 0.0, 1.0 ],
					"destination" : [ "obj-7", 0 ],
					"disabled" : 0,
					"hidden" : 0,
					"source" : [ "obj-73", 2 ]
				}

			}
, 			{
				"patchline" : 				{
					"color" : [ 0.0, 0.0, 0.0, 1.0 ],
					"destination" : [ "obj-2", 1 ],
					"disabled" : 0,
					"hidden" : 0,
					"source" : [ "obj-8", 0 ]
				}

			}
, 			{
				"patchline" : 				{
					"color" : [ 0.0, 0.0, 0.0, 1.0 ],
					"destination" : [ "obj-18", 0 ],
					"disabled" : 0,
					"hidden" : 0,
					"source" : [ "obj-81", 0 ]
				}

			}
, 			{
				"patchline" : 				{
					"color" : [ 0.0, 0.0, 0.0, 1.0 ],
					"destination" : [ "obj-13", 1 ],
					"disabled" : 0,
					"hidden" : 0,
					"source" : [ "obj-9", 0 ]
				}

			}
, 			{
				"patchline" : 				{
					"color" : [ 0.0, 0.0, 0.0, 1.0 ],
					"destination" : [ "obj-27", 1 ],
					"disabled" : 0,
					"hidden" : 0,
					"source" : [ "obj-9", 0 ]
				}

			}
 ],
		"parameters" : 		{
			"obj-27" : [ "gain", "gain", 0 ],
			"obj-72" : [ "val", "val", 0 ]
		}
,
		"dependency_cache" : [  ]
	}

}
